<?xml version="1.0" encoding="UTF-8"?> <svg xmlns="http://www.w3.org/2000/svg" width="567" height="171" viewBox="0 0 567 171" fill="none"><path d="M366.275 53.9181C366.275 49.9167 369.519 46.6729 373.52 46.6729H556.98C560.981 46.6729 564.225 49.9167 564.225 53.9181C564.225 57.9196 560.981 61.1634 556.98 61.1634H544.162C542.216 61.1634 540.637 62.7415 540.637 64.6881C540.637 66.6348 539.059 68.2129 537.113 68.2129H534.625C531.304 68.2129 528.613 70.9048 528.613 74.2254V75.0665C528.613 78.8517 531.681 81.9202 535.466 81.9202H560.93C564.282 81.9202 567 84.638 567 87.9905C567 91.3431 564.282 94.0609 560.93 94.0609H537.991C534.855 94.0609 532.312 96.6034 532.312 99.7396C532.312 102.876 534.855 105.418 537.991 105.418H543.61C548.099 105.418 551.737 109.057 551.737 113.546C551.737 118.034 548.153 121.673 543.664 121.673C519.098 121.673 443.79 121.673 392.332 121.673C383.716 121.673 372.081 121.673 364.565 121.673C360.401 121.673 357.025 118.297 357.025 114.133C357.025 109.969 360.401 106.593 364.565 106.593H379.38C383.381 106.593 386.625 103.349 386.625 99.348C386.625 95.3465 389.869 92.1027 393.87 92.1027H420.688C422.31 92.1027 423.625 90.7877 423.625 89.1655C423.625 87.5432 422.31 86.2282 420.688 86.2282H354.595C349.296 86.2282 345 81.9323 345 76.6331C345 71.3338 349.296 67.038 354.595 67.038H402.65C404.272 67.038 405.587 65.7229 405.587 64.1007C405.587 62.4785 404.272 61.1634 402.65 61.1634H373.52C369.519 61.1634 366.275 57.9196 366.275 53.9181Z" fill="#E4EBEF"></path><path d="M87.2367 24.2079C87.2367 20.0464 90.6103 16.6729 94.7718 16.6729H163.734C167.895 16.6729 171.269 20.0464 171.269 24.2079V28.8945C171.269 30.4677 169.993 31.743 168.42 31.743C166.847 31.743 165.572 33.0184 165.572 34.5916V35.4088C165.572 37.4333 167.213 39.0745 169.237 39.0745H183.101C187.038 39.0745 190.229 42.2657 190.229 46.2023C190.229 50.1388 193.42 53.3301 197.357 53.3301H223.687C227.173 53.3301 230 56.1566 230 59.6432C230 63.1299 227.173 65.9564 223.687 65.9564H199.968C196.707 65.9564 194.063 68.6006 194.063 71.8623C194.063 75.124 196.707 77.7682 199.968 77.7682H205.735C210.403 77.7682 214.187 81.5524 214.187 86.2205C214.187 90.8886 210.459 94.6729 205.791 94.6729C180.305 94.6729 102.328 94.6729 49.0373 94.6729C40.1219 94.6729 28.0868 94.6729 20.2988 94.6729C15.9682 94.6729 12.4583 91.1621 12.4583 86.8315C12.4583 82.5008 15.969 78.9901 20.2997 78.9901H23.5927C27.7542 78.9901 31.1278 75.6165 31.1278 71.455V69.5402C31.1278 66.4362 33.6441 63.9199 36.7481 63.9199H39.3137C41.0008 63.9199 42.3684 62.5523 42.3684 60.8652C42.3684 59.1781 41.0008 57.8104 39.3137 57.8104H9.97891C4.46771 57.8104 0 53.3427 0 47.8315C0 42.3203 4.4677 37.8526 9.9789 37.8526H59.7161C61.4032 37.8526 62.7708 36.4849 62.7708 34.7978C62.7708 33.1107 64.1385 31.743 65.8256 31.743H79.7016C83.8631 31.743 87.2367 28.3695 87.2367 24.2079Z" fill="#E4EBEF"></path><path fill-rule="evenodd" clip-rule="evenodd" d="M250.04 19.0308C262.681 15.6435 275.454 16.2509 287.034 20.0809C287.558 20.254 288.122 19.97 288.295 19.4466C288.469 18.9232 288.185 18.3585 287.661 18.1854C275.723 14.237 262.553 13.6111 249.523 17.1024C218.017 25.5443 197.854 55.2309 200.155 86.749C200.195 87.2988 200.674 87.712 201.224 87.6719C201.773 87.6317 202.187 87.1535 202.146 86.6036C199.913 56.0157 219.484 27.2183 250.04 19.0308ZM203.816 101.118C203.291 101.284 203 101.845 203.166 102.371C209.91 123.653 226.356 139.405 246.205 145.97C246.729 146.143 247.293 145.859 247.467 145.335C247.64 144.812 247.356 144.247 246.832 144.074C227.57 137.703 211.613 122.418 205.069 101.768C204.903 101.242 204.342 100.951 203.816 101.118ZM332.435 74.4749C331.887 74.5318 331.488 75.0224 331.545 75.5708C333.477 94.2044 327.267 112.331 315.34 125.718C314.973 126.129 315.009 126.76 315.421 127.127C315.832 127.494 316.463 127.457 316.83 127.046C329.121 113.251 335.522 94.5711 333.531 75.3649C333.474 74.8165 332.983 74.4181 332.435 74.4749Z" fill="#666666"></path><circle cx="230.5" cy="77.1729" r="5.5" fill="white"></circle><circle cx="267" cy="64.6729" r="9" fill="white"></circle><path d="M275.927 77.6729H267.438H257.45C254.953 77.6729 248.96 78.6547 246.963 82.5819C244.965 86.5092 246.464 91.4183 247.962 93.8729C249.46 96.3274 254.454 104.673 266.439 104.673C273.947 104.673 281.421 101.727 284.417 97.8001C286.536 95.0231 285.915 92.4001 285.915 89.9456C285.915 87.491 286.415 85.5274 283.918 81.6001C282.142 78.8076 277.426 77.6729 275.927 77.6729Z" fill="#40BFEF"></path><circle cx="303.5" cy="68.1729" r="5.5" fill="white"></circle><path fill-rule="evenodd" clip-rule="evenodd" d="M300.785 20.0624C300.952 20.2674 301.011 20.5378 300.939 20.7752L300.288 22.9196L301.199 24.9255C301.304 25.1571 301.292 25.4171 301.167 25.6162C301.043 25.8154 300.822 25.9267 300.581 25.9121L298.419 25.781L296.855 27.2583C296.686 27.4182 296.441 27.4715 296.204 27.3999C295.968 27.3282 295.772 27.1413 295.683 26.9034L294.888 24.7568L293.234 23.5848C293.043 23.449 292.916 23.2343 292.893 23.0051C292.87 22.7758 292.952 22.5584 293.115 22.418L294.619 21.1245L295.295 18.8983C295.362 18.6766 295.535 18.5129 295.756 18.4599C295.978 18.4069 296.221 18.4713 296.407 18.6325L297.983 19.9971L300.12 19.7735C300.365 19.7478 300.617 19.8574 300.785 20.0624Z" fill="white"></path><path fill-rule="evenodd" clip-rule="evenodd" d="M302.373 18.7521C302.625 19.0593 302.708 19.4682 302.593 19.8299L301.55 23.097L302.899 26.1193C303.054 26.4684 303.031 26.8629 302.836 27.1677C302.64 27.4726 302.3 27.6463 301.932 27.6294L298.63 27.4783L296.207 29.7535C295.944 29.9999 295.568 30.0861 295.208 29.9826C294.848 29.8791 294.552 29.6 294.423 29.2411L293.253 26.0026L290.751 24.2613C290.462 24.0596 290.273 23.7368 290.242 23.3896C290.212 23.0423 290.342 22.7108 290.595 22.4941L292.923 20.499L294.005 17.1075C294.113 16.7698 294.38 16.5176 294.72 16.4323C295.061 16.347 295.431 16.4394 295.712 16.6797L298.091 18.7149L301.363 18.3285C301.739 18.2842 302.122 18.4449 302.373 18.7521ZM299.972 20.7386L297.998 20.9718C297.693 21.0077 297.38 20.909 297.136 20.7005L295.607 19.3924L294.909 21.5795C294.851 21.7618 294.745 21.922 294.603 22.044L293.125 23.3102L294.717 24.418C294.921 24.5598 295.077 24.7631 295.161 24.9966L295.871 26.9617L297.41 25.5165C297.609 25.3299 297.876 25.2329 298.155 25.2457L300.218 25.3401L299.398 23.5023C299.283 23.2436 299.265 22.9563 299.347 22.6974L299.972 20.7386Z" fill="#666666"></path><path fill-rule="evenodd" clip-rule="evenodd" d="M323.03 36.5996C323.197 36.8046 323.255 37.075 323.183 37.3124L322.532 39.4569L323.443 41.4627C323.548 41.6944 323.537 41.9543 323.412 42.1534C323.287 42.3526 323.066 42.4639 322.825 42.4493L320.664 42.3183L319.1 43.7955C318.931 43.9555 318.686 44.0087 318.449 43.9371C318.212 43.8654 318.016 43.6786 317.928 43.4406L317.132 41.294L315.479 40.122C315.287 39.9862 315.161 39.7716 315.138 39.5423C315.114 39.313 315.197 39.0957 315.36 38.9552L316.864 37.6617L317.54 35.4356C317.607 35.2139 317.779 35.0501 318.001 34.9971C318.223 34.9441 318.466 35.0086 318.652 35.1697L320.228 36.5343L322.365 36.3107C322.61 36.2851 322.862 36.3947 323.03 36.5996Z" fill="white"></path><path fill-rule="evenodd" clip-rule="evenodd" d="M324.62 35.2885C324.872 35.5957 324.955 36.0046 324.839 36.3663L323.797 39.6333L325.145 42.6557C325.301 43.0048 325.277 43.3993 325.082 43.7041C324.887 44.0089 324.547 44.1827 324.179 44.1658L320.877 44.0147L318.453 46.2899C318.191 46.5362 317.815 46.6224 317.455 46.519C317.095 46.4155 316.799 46.1364 316.669 45.7774L315.5 42.5389L312.998 40.7977C312.708 40.5959 312.52 40.2732 312.489 39.926C312.458 39.5787 312.589 39.2472 312.842 39.0305L315.17 37.0354L316.252 33.6439C316.36 33.3061 316.627 33.0539 316.967 32.9687C317.307 32.8834 317.677 32.9758 317.958 33.2161L320.338 35.2512L323.61 34.8649C323.985 34.8206 324.368 34.9813 324.62 35.2885ZM322.219 37.275L320.244 37.5081C319.94 37.5441 319.627 37.4454 319.383 37.2368L317.854 35.9288L317.156 38.1159C317.098 38.2981 316.992 38.4584 316.85 38.5804L315.372 39.8466L316.964 40.9544C317.167 41.0961 317.324 41.2995 317.408 41.5329L318.117 43.4981L319.657 42.0529C319.856 41.8663 320.123 41.7693 320.402 41.7821L322.465 41.8765L321.645 40.0387C321.529 39.78 321.511 39.4927 321.594 39.2338L322.219 37.275Z" fill="#666666"></path><path fill-rule="evenodd" clip-rule="evenodd" d="M329.588 61.4255C329.847 61.3688 330.114 61.439 330.293 61.6106L331.912 63.1606L334.113 63.255C334.367 63.2659 334.593 63.3939 334.715 63.5952C334.836 63.7965 334.836 64.0437 334.713 64.2522L333.619 66.121L334.23 68.1837C334.296 68.4071 334.233 68.6497 334.062 68.8284C333.891 69.007 333.636 69.0974 333.384 69.0686L331.109 68.808L329.317 69.7529C329.109 69.8624 328.86 69.8781 328.645 69.7953C328.43 69.7125 328.273 69.5409 328.222 69.3317L327.748 67.4052L326.068 65.7962C325.901 65.636 325.832 65.4083 325.885 65.1865C325.938 64.9648 326.106 64.7771 326.333 64.684L328.263 63.8953L329.03 61.888C329.118 61.6578 329.329 61.4823 329.588 61.4255Z" fill="white"></path><path fill-rule="evenodd" clip-rule="evenodd" d="M329.138 59.4143C329.526 59.3288 329.928 59.4394 330.198 59.7058L332.641 62.1126L335.947 62.2763C336.328 62.2952 336.67 62.4947 336.853 62.8066C337.037 63.1184 337.038 63.5002 336.857 63.8212L335.229 66.698L336.163 69.8884C336.264 70.2338 336.171 70.6079 335.916 70.8825C335.661 71.157 335.278 71.2945 334.9 71.2479L331.482 70.827L328.798 72.2716C328.487 72.4389 328.114 72.4611 327.79 72.3316C327.467 72.202 327.23 71.9356 327.151 71.6121L326.424 68.6334L323.888 66.135C323.635 65.8862 323.531 65.534 323.609 65.192C323.687 64.8501 323.936 64.5616 324.278 64.4196L327.169 63.2174L328.303 60.124C328.434 59.7691 328.75 59.4999 329.138 59.4143ZM329.824 62.4542L329.14 64.321C329.034 64.6086 328.805 64.8433 328.508 64.9665L326.65 65.7393L328.286 67.3504C328.422 67.4847 328.517 67.6514 328.561 67.8335L329.023 69.724L330.731 68.805C330.949 68.6874 331.201 68.6401 331.447 68.6704L333.521 68.9258L332.928 66.8993C332.851 66.6376 332.885 66.3558 333.023 66.1123L334.04 64.3151L332.03 64.2156C331.747 64.2016 331.483 64.088 331.289 63.8972L329.824 62.4542Z" fill="#666666"></path><path fill-rule="evenodd" clip-rule="evenodd" d="M299.637 81.9735C299.637 99.6889 285.276 114.05 267.561 114.05C249.846 114.05 235.484 99.6889 235.484 81.9735C235.484 64.2581 249.846 49.897 267.561 49.897C285.276 49.897 299.637 64.2581 299.637 81.9735ZM292.347 81.9734C292.347 95.6626 281.25 106.76 267.561 106.76C253.872 106.76 242.775 95.6626 242.775 81.9734C242.775 71.4972 249.274 62.5389 258.461 58.9109C260.345 56.0678 263.716 54.1736 267.561 54.1736C271.405 54.1736 274.776 56.0676 276.66 58.9106C285.848 62.5383 292.347 71.4968 292.347 81.9734Z" fill="white"></path><rect x="288.991" y="123.277" width="10.9109" height="5.03238" transform="rotate(-35.7542 288.991 123.277)" fill="#40BFEF"></rect><path fill-rule="evenodd" clip-rule="evenodd" d="M244.603 87.0575C244.603 79.8683 250.423 74.0479 257.612 74.0479H277.526C284.716 74.0479 290.536 79.8683 290.536 87.0575V90.4292H288.54V87.0575C288.54 80.971 283.613 76.0444 277.526 76.0444H257.612C251.526 76.0444 246.599 80.971 246.599 87.0575V91.1667H244.603V87.0575Z" fill="#666666"></path><path fill-rule="evenodd" clip-rule="evenodd" d="M279.368 87.7955V102.652H277.371V87.7955H279.368Z" fill="#666666"></path><path fill-rule="evenodd" clip-rule="evenodd" d="M257.873 87.7955V102.757H255.876V87.7955H257.873Z" fill="#666666"></path><path fill-rule="evenodd" clip-rule="evenodd" d="M257.942 61.7869C256.616 67.1251 259.869 72.5277 265.207 73.8539C270.545 75.18 275.948 71.9276 277.274 66.5894C278.6 61.2511 275.348 55.8485 270.009 54.5224C264.671 53.1962 259.268 56.4486 257.942 61.7869ZM264.726 75.7914C258.317 74.1994 254.413 67.7139 256.005 61.3055C257.597 54.8972 264.082 50.9928 270.491 52.5848C276.899 54.1768 280.804 60.6624 279.212 67.0707C277.62 73.4791 271.134 77.3835 264.726 75.7914Z" fill="#666666"></path><path fill-rule="evenodd" clip-rule="evenodd" d="M303.868 60.9776C300.389 60.9776 297.461 63.7292 297.278 67.1966L295.285 67.0917C295.524 62.5514 299.339 58.9812 303.868 58.9812C308.634 58.9812 312.452 62.7997 312.452 67.5656C312.452 72.3314 308.634 76.15 303.868 76.15C301.488 76.15 299.34 75.1966 297.788 73.645L299.2 72.2332C300.388 73.4211 302.033 74.1535 303.868 74.1535C307.531 74.1535 310.456 71.2288 310.456 67.5656C310.456 63.9024 307.531 60.9776 303.868 60.9776Z" fill="#666666"></path><path fill-rule="evenodd" clip-rule="evenodd" d="M244.383 60.5299C232.742 73.2676 233.632 93.0298 246.37 104.67C259.108 116.31 278.87 115.421 290.511 102.683C302.151 89.9453 301.261 70.1831 288.523 58.5429C275.786 46.9026 256.023 47.7923 244.383 60.5299ZM245.023 106.144C231.471 93.7597 230.525 72.7347 242.909 59.1831C255.293 45.6315 276.319 44.685 289.87 57.0691C303.422 69.4531 304.369 90.4782 291.984 104.03C279.6 117.581 258.575 118.528 245.023 106.144Z" fill="#666666"></path><path fill-rule="evenodd" clip-rule="evenodd" d="M230.689 101.468C231.292 102.674 232.001 103.791 232.839 105.048C232.862 105.083 232.883 105.119 232.902 105.156C233.163 105.679 233.517 106.126 233.947 106.664L232.388 107.911C232.381 107.902 232.373 107.892 232.365 107.882C231.968 107.386 231.505 106.808 231.145 106.106C230.311 104.853 229.556 103.666 228.903 102.361L230.689 101.468Z" fill="#666666"></path><path fill-rule="evenodd" clip-rule="evenodd" d="M236.951 110.292C247.959 122.02 264.736 126.243 279.868 121.611L280.453 123.52C264.608 128.37 247.036 123.953 235.496 111.658L236.951 110.292Z" fill="#666666"></path><path fill-rule="evenodd" clip-rule="evenodd" d="M299.308 54.4012C297.766 52.5511 296.018 50.8027 294.167 49.2609L295.446 47.7271C297.389 49.3462 299.223 51.1802 300.842 53.1231L299.308 54.4012Z" fill="#666666"></path><path fill-rule="evenodd" clip-rule="evenodd" d="M290.777 46.5877C276.982 37.4255 258.457 36.9149 243.95 46.792L243.942 46.7975L243.942 46.7974C240.854 48.8559 238.186 51.2177 235.932 53.8817L234.408 52.5921C236.789 49.7784 239.598 47.2944 242.83 45.139C258.036 34.7891 277.44 35.3329 291.882 44.9246L290.777 46.5877Z" fill="#666666"></path><path fill-rule="evenodd" clip-rule="evenodd" d="M254.684 62.7095C255.803 61.9985 256.917 61.3918 258.026 60.8877L257.2 59.0701C255.995 59.6177 254.795 60.2726 253.6 61.0333C253.591 61.0386 253.583 61.0442 253.575 61.0498C242.267 68.7347 239.302 84.2116 246.988 95.5207C254.673 106.828 270.15 109.793 281.459 102.107C292.767 94.4221 295.732 78.9452 288.046 67.6361L288.036 67.6216C285.411 63.9027 282.014 61.0518 278.173 59.1863L277.301 60.9822C280.834 62.6979 283.968 65.3234 286.4 68.7656C293.458 79.1608 290.732 93.3914 280.337 100.456C269.941 107.521 255.705 104.796 248.639 94.3984C241.577 84.0068 244.297 69.7784 254.684 62.7095Z" fill="#666666"></path><path fill-rule="evenodd" clip-rule="evenodd" d="M290.98 127.218L300.463 120.791L301.583 122.444L292.1 128.871L290.98 127.218Z" fill="#666666"></path><path fill-rule="evenodd" clip-rule="evenodd" d="M298.422 117.702L288.939 124.129L287.819 122.476L297.302 116.049L298.422 117.702Z" fill="#666666"></path><path fill-rule="evenodd" clip-rule="evenodd" d="M289.737 103.871C290.033 103.899 290.302 104.057 290.469 104.303L310.283 133.391C312.301 136.418 311.371 140.49 308.234 142.665C305.262 144.767 301.043 144.041 299.036 141.034C299.035 141.033 299.035 141.032 299.034 141.031L279.229 111.746C279.066 111.504 279.016 111.203 279.093 110.922C279.171 110.641 279.367 110.408 279.631 110.283C281.414 109.444 283.249 108.524 284.864 107.414L284.876 107.406C286.422 106.375 287.735 105.363 288.938 104.159C289.148 103.949 289.441 103.843 289.737 103.871ZM285.989 109.063C284.571 110.037 283.022 110.861 281.532 111.587L300.695 139.924C302.059 141.97 305 142.509 307.084 141.033L307.093 141.027C309.43 139.409 309.975 136.532 308.625 134.503L289.479 106.396C288.404 107.365 287.254 108.219 285.989 109.063Z" fill="#666666"></path><path fill-rule="evenodd" clip-rule="evenodd" d="M312.346 84.0023V95.9084H310.35V84.0023H312.346Z" fill="#666666"></path><path fill-rule="evenodd" clip-rule="evenodd" d="M299.021 76.2548V74.2583H307.661C314.64 74.2583 320.25 79.868 320.25 86.8465V96.0131C320.25 96.5644 319.803 97.0114 319.251 97.0114H296.387V95.0149H318.253V86.8465C318.253 80.9707 313.537 76.2548 307.661 76.2548H299.021Z" fill="#666666"></path><path fill-rule="evenodd" clip-rule="evenodd" d="M231.061 60.9776C227.398 60.9776 224.473 63.9024 224.473 67.5656C224.473 71.2288 227.398 74.1535 231.061 74.1535C232.896 74.1535 234.541 73.4211 235.729 72.2332L237.141 73.645C235.589 75.1966 233.441 76.15 231.061 76.15C226.295 76.15 222.477 72.3314 222.477 67.5656C222.477 62.7997 226.295 58.9812 231.061 58.9812C235.704 58.9812 239.406 62.5602 239.644 67.0917L237.65 67.1966C237.468 63.7204 234.637 60.9776 231.061 60.9776Z" fill="#666666"></path><path fill-rule="evenodd" clip-rule="evenodd" d="M224.578 84.0023V95.9084H222.582V84.0023H224.578Z" fill="#666666"></path><path fill-rule="evenodd" clip-rule="evenodd" d="M227.268 76.1498C221.392 76.1498 216.676 80.8657 216.676 86.7415V94.9099H238.542V96.9064H215.677C215.126 96.9064 214.679 96.4594 214.679 95.9081V86.7415C214.679 79.763 220.289 74.1533 227.268 74.1533H235.907V76.1498H227.268Z" fill="#666666"></path><path d="M48 95.6729L221 95.6729" stroke="#666666" stroke-width="2" stroke-miterlimit="10" stroke-linecap="round" stroke-linejoin="round"></path><path d="M311 146.673L467 146.673" stroke="#666666" stroke-width="2" stroke-miterlimit="10" stroke-linecap="round" stroke-linejoin="round"></path><path d="M130 161.725L9.00001 161.725" stroke="#666666" stroke-width="2" stroke-miterlimit="10" stroke-linecap="round" stroke-linejoin="round"></path><path d="M437 152.673L558 152.673" stroke="#666666" stroke-width="2" stroke-miterlimit="10" stroke-linecap="round" stroke-linejoin="round"></path><path d="M468.11 123.752C468.11 123.752 457.668 114.976 459.098 104.904C460.528 94.8325 468.396 89.0774 468.396 89.0774C468.396 89.0774 477.694 97.7101 477.694 105.623C477.694 113.537 468.11 123.752 468.11 123.752Z" fill="#40BFEF"></path><path d="M452.375 95.2543C452.375 95.2543 441.932 86.4776 443.363 76.4061C444.793 66.3345 452.661 60.5793 452.661 60.5793C452.661 60.5793 461.959 69.2121 461.959 77.1255C461.959 85.0389 452.375 95.2543 452.375 95.2543Z" fill="#40BFEF"></path><path d="M452.187 143.297L452.188 61.3936" stroke="#666666" stroke-width="2" stroke-miterlimit="10" stroke-linecap="round" stroke-linejoin="round"></path><path d="M468.476 153.123V89.0774" stroke="#666666" stroke-width="2" stroke-miterlimit="10" stroke-linecap="round" stroke-linejoin="round"></path><path d="M443.363 77.8446L452.375 86.2615L461.959 77.1252" stroke="#666666" stroke-width="2" stroke-miterlimit="10" stroke-linecap="round" stroke-linejoin="round"></path><path d="M445.508 69.212L452.375 76.1182L459.098 69.212" stroke="#666666" stroke-width="2" stroke-miterlimit="10" stroke-linecap="round" stroke-linejoin="round"></path><path d="M452.375 95.2543C452.375 95.2543 441.932 86.4776 443.363 76.4061C444.793 66.3345 452.661 60.5793 452.661 60.5793C452.661 60.5793 461.959 69.2121 461.959 77.1255C461.959 85.0389 452.375 95.2543 452.375 95.2543Z" stroke="#666666" stroke-width="2" stroke-miterlimit="10" stroke-linecap="round" stroke-linejoin="round"></path><path d="M459.097 106.343L468.109 114.76L477.693 105.623" stroke="#666666" stroke-width="2" stroke-miterlimit="10" stroke-linecap="round" stroke-linejoin="round"></path><path d="M461.243 97.71L468.109 104.616L474.833 97.71" stroke="#666666" stroke-width="2" stroke-miterlimit="10" stroke-linecap="round" stroke-linejoin="round"></path><path d="M468.11 123.752C468.11 123.752 457.668 114.976 459.098 104.904C460.528 94.8325 468.396 89.0774 468.396 89.0774C468.396 89.0774 477.694 97.7101 477.694 105.623C477.694 113.537 468.11 123.752 468.11 123.752Z" stroke="#666666" stroke-width="2" stroke-miterlimit="10" stroke-linecap="round" stroke-linejoin="round"></path><path d="M522.404 131.399C522.404 131.399 514.68 124.907 515.738 117.458C516.796 110.008 522.616 105.751 522.616 105.751C522.616 105.751 529.493 112.137 529.493 117.99C529.493 123.843 522.404 131.399 522.404 131.399Z" fill="#40BFEF"></path><path d="M510.765 110.32C510.765 110.32 503.042 103.829 504.1 96.3791C505.158 88.9297 510.977 84.6729 510.977 84.6729C510.977 84.6729 517.854 91.0581 517.854 96.9112C517.854 102.764 510.765 110.32 510.765 110.32Z" fill="#40BFEF"></path><path d="M510.627 145.855L510.627 85.2751" stroke="#666666" stroke-width="2" stroke-miterlimit="10" stroke-linecap="round" stroke-linejoin="round"></path><path d="M522.675 153.123V105.751" stroke="#666666" stroke-width="2" stroke-miterlimit="10" stroke-linecap="round" stroke-linejoin="round"></path><path d="M504.1 97.4432L510.765 103.669L517.854 96.9111" stroke="#666666" stroke-width="2" stroke-miterlimit="10" stroke-linecap="round" stroke-linejoin="round"></path><path d="M505.687 91.058L510.765 96.1662L515.738 91.058" stroke="#666666" stroke-width="2" stroke-miterlimit="10" stroke-linecap="round" stroke-linejoin="round"></path><path d="M510.765 110.32C510.765 110.32 503.042 103.829 504.1 96.3791C505.158 88.9297 510.977 84.6729 510.977 84.6729C510.977 84.6729 517.854 91.0581 517.854 96.9112C517.854 102.764 510.765 110.32 510.765 110.32Z" stroke="#666666" stroke-width="2" stroke-miterlimit="10" stroke-linecap="round" stroke-linejoin="round"></path><path d="M515.738 118.522L522.404 124.747L529.493 117.99" stroke="#666666" stroke-width="2" stroke-miterlimit="10" stroke-linecap="round" stroke-linejoin="round"></path><path d="M517.325 112.137L522.403 117.245L527.376 112.137" stroke="#666666" stroke-width="2" stroke-miterlimit="10" stroke-linecap="round" stroke-linejoin="round"></path><path d="M522.404 131.399C522.404 131.399 514.68 124.907 515.738 117.458C516.796 110.008 522.616 105.751 522.616 105.751C522.616 105.751 529.493 112.137 529.493 117.99C529.493 123.843 522.404 131.399 522.404 131.399Z" stroke="#666666" stroke-width="2" stroke-miterlimit="10" stroke-linecap="round" stroke-linejoin="round"></path><path fill-rule="evenodd" clip-rule="evenodd" d="M82.8505 48.9374C82.8505 48.1489 82.2113 47.5096 81.4227 47.5096C80.6342 47.5096 79.9949 48.1489 79.9949 48.9374C79.9949 49.726 80.6342 50.3652 81.4227 50.3652C82.2113 50.3652 82.8505 49.726 82.8505 48.9374ZM81.4227 46.0818C82.9998 46.0818 84.2783 47.3603 84.2783 48.9374C84.2783 50.5145 82.9998 51.793 81.4227 51.793C79.8456 51.793 78.5671 50.5145 78.5671 48.9374C78.5671 47.3603 79.8456 46.0818 81.4227 46.0818Z" fill="#666666"></path><path fill-rule="evenodd" clip-rule="evenodd" d="M74.2836 56.7913C74.2836 56.0027 73.6444 55.3635 72.8558 55.3635C72.0673 55.3635 71.428 56.0027 71.428 56.7913C71.428 57.5798 72.0673 58.2191 72.8558 58.2191C73.6444 58.2191 74.2836 57.5798 74.2836 56.7913ZM72.8558 53.9357C74.4329 53.9357 75.7114 55.2142 75.7114 56.7913C75.7114 58.3684 74.4329 59.6469 72.8558 59.6469C71.2787 59.6469 70.0002 58.3684 70.0002 56.7913C70.0002 55.2142 71.2787 53.9357 72.8558 53.9357Z" fill="#666666"></path><path fill-rule="evenodd" clip-rule="evenodd" d="M160.664 19.6691C160.664 18.8805 160.024 18.2413 159.236 18.2413C158.447 18.2413 157.808 18.8805 157.808 19.6691C157.808 20.4576 158.447 21.0969 159.236 21.0969C160.024 21.0969 160.664 20.4576 160.664 19.6691ZM159.236 16.8135C160.813 16.8135 162.091 18.092 162.091 19.6691C162.091 21.2462 160.813 22.5247 159.236 22.5247C157.659 22.5247 156.38 21.2462 156.38 19.6691C156.38 18.092 157.659 16.8135 159.236 16.8135Z" fill="#666666"></path><path fill-rule="evenodd" clip-rule="evenodd" d="M84.9936 64.6409C84.9936 63.8524 84.3543 63.2131 83.5658 63.2131C82.7772 63.2131 82.138 63.8524 82.138 64.6409C82.138 65.4295 82.7772 66.0687 83.5658 66.0687C84.3543 66.0687 84.9936 65.4295 84.9936 64.6409ZM83.5658 61.7853C85.1429 61.7853 86.4214 63.0638 86.4214 64.6409C86.4214 66.218 85.1429 67.4965 83.5658 67.4965C81.9887 67.4965 80.7102 66.218 80.7102 64.6409C80.7102 63.0638 81.9887 61.7853 83.5658 61.7853Z" fill="#666666"></path><path fill-rule="evenodd" clip-rule="evenodd" d="M185.445 26.304C185.723 26.5836 185.721 27.0356 185.442 27.3136L181.158 31.5732C180.879 31.8512 180.427 31.8499 180.149 31.5703C179.871 31.2908 179.872 30.8388 180.152 30.5607L184.435 26.3012C184.715 26.0232 185.167 26.0244 185.445 26.304Z" fill="#666666"></path><path fill-rule="evenodd" clip-rule="evenodd" d="M185.445 31.5747C185.167 31.8542 184.715 31.8555 184.435 31.5775L180.152 27.3181C179.872 27.0401 179.871 26.588 180.149 26.3085C180.427 26.0289 180.879 26.0276 181.158 26.3056L185.442 30.5651C185.721 30.8431 185.723 31.2951 185.445 31.5747Z" fill="#666666"></path><path fill-rule="evenodd" clip-rule="evenodd" d="M96.2059 9.88342C96.4839 10.163 96.4826 10.615 96.2031 10.893L90.436 16.628C90.1565 16.906 89.7044 16.9047 89.4264 16.6251C89.1484 16.3456 89.1497 15.8936 89.4292 15.6155L95.1963 9.8806C95.4759 9.60259 95.9279 9.60385 96.2059 9.88342Z" fill="#666666"></path><path fill-rule="evenodd" clip-rule="evenodd" d="M96.2059 16.6295C95.9279 16.909 95.4759 16.9103 95.1963 16.6323L89.4293 10.8975C89.1497 10.6195 89.1484 10.1675 89.4264 9.88791C89.7044 9.60834 90.1564 9.60707 90.436 9.88508L96.2031 15.6199C96.4826 15.8979 96.4839 16.3499 96.2059 16.6295Z" fill="#666666"></path><path fill-rule="evenodd" clip-rule="evenodd" d="M174.142 54.885C174.151 55.1349 174.029 55.3716 173.82 55.5087L171.931 56.7476L171.42 58.7765C171.361 59.0108 171.187 59.1994 170.959 59.2777C170.73 59.3559 170.477 59.3131 170.287 59.164L168.582 57.8277L166.358 58.0423C166.117 58.0655 165.881 57.9653 165.731 57.7759C165.58 57.5865 165.536 57.3338 165.613 57.1045L166.308 55.0355L165.679 53.2079C165.606 52.9962 165.637 52.7625 165.762 52.5768C165.887 52.3911 166.092 52.2749 166.316 52.2629L168.375 52.1522L170.336 50.8662C170.531 50.7381 170.777 50.7137 170.994 50.8009C171.21 50.888 171.371 51.0757 171.423 51.3033L171.866 53.2313L173.774 54.2871C173.993 54.4082 174.133 54.635 174.142 54.885ZM172.048 54.9635L170.896 54.3264C170.719 54.2282 170.592 54.0592 170.546 53.8616L170.261 52.6224L168.996 53.4517C168.891 53.5209 168.769 53.5608 168.643 53.5676L167.337 53.6378L167.737 54.8005C167.788 54.9493 167.788 55.1108 167.738 55.2599L167.317 56.5154L168.729 56.3791C168.912 56.3615 169.094 56.4148 169.238 56.5279L170.303 57.3627L170.614 56.1289C170.658 55.9553 170.765 55.8044 170.915 55.7062L172.048 54.9635Z" fill="#666666"></path><circle r="3.02897" transform="matrix(-1 0 0 1 134.538 51.6458)" fill="#40BFEF"></circle><circle r="3.02897" transform="matrix(-1 0 0 1 120.692 38.6645)" fill="#40BFEF"></circle><circle r="2.59626" transform="matrix(-1 0 0 1 127.183 60.7327)" fill="#40BFEF"></circle><circle r="3.02897" transform="matrix(-1 0 0 1 100.787 60.3)" fill="#40BFEF"></circle><circle r="3.02897" transform="matrix(-1 0 0 1 110.306 49.0496)" fill="#40BFEF"></circle><path d="M104.507 97.1183H133.965C134.402 97.1183 134.84 96.6807 134.84 96.2432V95.7089C134.84 93.3753 136.59 91.4793 138.923 91.0417L143.006 90.4584C146.214 90.0208 148.548 87.2497 148.548 84.041V74.2691C148.548 73.9774 148.693 73.8315 148.985 73.8315H154.089C154.964 73.8315 155.693 73.394 155.985 72.6647C156.422 71.9355 156.422 71.0604 155.985 70.477L151.464 62.6011C148.985 58.0798 147.527 52.9751 147.527 47.8704C147.527 39.557 143.735 31.6811 137.465 27.0139C131.194 22.2009 123.319 20.159 115.299 21.18C102.028 22.9302 91.6742 33.5772 89.9243 46.7036C88.7576 56.1838 91.9659 65.5181 98.8198 72.0813C101.882 74.9983 103.486 78.9363 103.486 83.02V96.2432C103.486 96.5349 103.632 96.6807 103.778 96.8266C104.07 97.1183 104.216 97.1183 104.507 97.1183ZM133.09 95.3681H105.382V83.1659C105.382 78.6446 103.486 74.2691 100.132 70.9146C93.7158 64.643 90.6534 56.0379 91.82 47.1411C93.4242 34.8898 103.341 24.8262 115.59 23.076C123.173 22.0551 130.465 23.9511 136.444 28.4724C142.277 32.9938 145.777 40.2862 145.777 48.0162C145.777 53.4126 147.235 58.8091 149.86 63.6221L154.381 71.498C154.527 71.6438 154.381 71.9355 154.381 71.9355C154.381 71.9355 154.235 72.2272 153.943 72.2272H148.839C147.527 72.2272 146.506 73.2481 146.506 74.5608V84.3327C146.506 86.6662 144.756 88.5623 142.423 88.9999L138.34 89.5832C135.131 90.0208 132.798 92.7919 132.798 96.0006V95.3681H133.09Z" fill="#666666"></path><path d="M104.507 96.8761H113.549C113.986 96.8761 114.424 96.4386 114.424 96.001V66.8312C114.424 66.5395 114.278 66.2478 114.132 66.1019L105.091 59.3929C104.653 59.1012 104.07 59.247 103.778 59.5387C103.487 59.9763 103.632 60.5596 103.924 60.8513L112.528 67.2688V95.1259H104.507C104.07 95.1259 103.632 95.5635 103.632 96.001C103.632 96.4386 104.07 96.8761 104.507 96.8761Z" fill="#666666"></path><path d="M89.0496 97.1184H159.193C159.631 97.1184 160.068 96.6808 160.068 96.2433C160.068 95.8057 159.631 95.3681 159.193 95.3681H89.0496C88.6121 95.3681 88.1746 95.8057 88.1746 96.2433C88.1746 96.8267 88.6121 97.1184 89.0496 97.1184Z" fill="#666666"></path><path d="M134.548 55.6005C136.881 55.6005 138.777 53.7044 138.777 51.3708C138.777 49.0372 136.881 47.1412 134.548 47.1412C132.215 47.1412 130.319 49.0372 130.319 51.3708C130.465 53.7044 132.36 55.6005 134.548 55.6005ZM134.548 49.0373C135.86 49.0373 136.881 50.0582 136.881 51.3708C136.881 52.6835 135.86 53.7045 134.548 53.7045C133.235 53.7045 132.215 52.6835 132.215 51.3708C132.215 50.0582 133.235 49.0373 134.548 49.0373Z" fill="#666666"></path><path d="M126.965 64.3509C128.715 64.3509 130.319 62.8924 130.319 60.9963C130.319 59.1003 128.861 57.6418 126.965 57.6418C125.215 57.6418 123.611 59.1003 123.611 60.9963C123.611 62.8924 125.215 64.3509 126.965 64.3509ZM126.965 59.5379C127.84 59.5379 128.424 60.2671 128.424 60.9963C128.424 61.8714 127.694 62.4548 126.965 62.4548C126.09 62.4548 125.507 61.7256 125.507 60.9963C125.507 60.2671 126.09 59.5379 126.965 59.5379Z" fill="#666666"></path><path d="M120.257 43.0574C122.591 43.0574 124.486 41.1613 124.486 38.8277C124.486 36.4941 122.591 34.5981 120.257 34.5981C117.924 34.5981 116.028 36.4941 116.028 38.8277C116.028 41.1613 117.924 43.0574 120.257 43.0574ZM120.257 36.4942C121.57 36.4942 122.591 37.5151 122.591 38.8277C122.591 40.1404 121.57 41.1613 120.257 41.1613C118.945 41.1613 117.924 40.1404 117.924 38.8277C117.778 37.6609 118.945 36.4942 120.257 36.4942Z" fill="#666666"></path><path d="M110.195 52.9746C112.528 52.9746 114.424 51.0786 114.424 48.745C114.424 46.4114 112.528 44.5154 110.195 44.5154C107.862 44.5154 105.966 46.4114 105.966 48.745C105.966 51.2244 107.862 52.9746 110.195 52.9746ZM110.195 46.4114C111.507 46.4114 112.528 47.4324 112.528 48.745C112.528 50.0576 111.507 51.0786 110.195 51.0786C108.882 51.0786 107.862 50.0576 107.862 48.745C107.862 47.5782 108.882 46.4114 110.195 46.4114Z" fill="#666666"></path><path d="M101.3 64.3514C103.633 64.3514 105.529 62.4554 105.529 60.1218C105.529 57.7882 103.633 55.8922 101.3 55.8922C98.9665 55.8922 97.0707 57.7882 97.0707 60.1218C97.0707 62.4554 98.9665 64.3514 101.3 64.3514ZM101.3 57.7882C102.612 57.7882 103.633 58.8092 103.633 60.1218C103.633 61.4344 102.612 62.4554 101.3 62.4554C99.9873 62.4554 98.9665 61.4344 98.9665 60.1218C98.8207 58.8092 99.8415 57.7882 101.3 57.7882Z" fill="#666666"></path><path d="M120.257 96.876C120.694 96.876 121.132 96.4385 121.132 96.0009V42.1825C121.132 41.745 120.694 41.3074 120.257 41.3074C119.819 41.3074 119.382 41.745 119.382 42.1825V96.0009C119.382 96.4385 119.674 96.876 120.257 96.876Z" fill="#666666"></path><path d="M120.257 79.5193H120.403L134.84 76.4565C135.278 76.3106 135.569 76.0189 135.569 75.5814V54.8708C135.569 54.4333 135.132 53.9957 134.694 53.9957C134.257 53.9957 133.819 54.4333 133.819 54.8708V74.8521L120.111 77.7691C119.674 77.915 119.382 78.3525 119.382 78.7901C119.382 79.2276 119.82 79.5193 120.257 79.5193Z" fill="#666666"></path><path d="M120.257 64.3514C120.549 64.3514 120.841 64.2055 120.986 63.9138C121.278 63.4762 121.132 62.8929 120.695 62.747L111.07 56.4754V52.2458C111.07 51.8083 110.633 51.3707 110.195 51.3707C109.758 51.3707 109.32 51.8083 109.32 52.2458V56.913C109.32 57.2047 109.466 57.4964 109.758 57.6423L119.82 64.2055C119.82 64.2055 120.111 64.3514 120.257 64.3514Z" fill="#666666"></path><path d="M120.257 71.6443C120.403 71.6443 120.403 71.6443 120.549 71.6443L127.257 69.8941C127.695 69.7483 127.986 69.4565 127.986 69.019V63.3309C127.986 62.8933 127.549 62.4557 127.111 62.4557C126.674 62.4557 126.236 62.8933 126.236 63.3309V68.2897L120.112 69.8941C119.674 70.04 119.382 70.4775 119.528 70.9151C119.528 71.4985 119.82 71.6443 120.257 71.6443Z" fill="#666666"></path><path d="M371.912 132.488C367.011 133.156 364.115 137.035 363.279 138.891C357.859 134.57 354.09 139.762 354.09 142.359V146.129H461.759C461.087 138.891 459.979 132.488 451.34 127.873C442.701 123.258 436.18 124.185 432.285 125.916C430.615 123.689 424.064 114.665 411.733 120.796C404.206 124.538 403.564 133.416 403.936 136.942C402.636 134.901 398.645 130.706 393.075 130.261C387.506 129.815 383.515 133.602 382.215 135.55C380.823 134.251 376.813 131.82 371.912 132.488Z" fill="white"></path><path d="M444.618 131.904C444.618 131.904 448.651 131.568 451.676 134.592C454.701 137.615 454.716 141.445 454.716 141.445" stroke="#666666" stroke-width="2" stroke-miterlimit="10" stroke-linecap="round" stroke-linejoin="round"></path><path d="M354.397 143.224C353.532 138.951 358.601 134.659 363.279 138.891C364.95 133.601 374.14 129.147 382.215 135.55C385.557 129.147 397.531 127.199 403.936 137.22C403.1 131.931 405.607 122.744 414.518 119.682C425.378 115.95 432.061 122.744 432.061 122.744" stroke="#666666" stroke-width="2" stroke-linecap="round" stroke-linejoin="round"></path><path d="M425.656 128.312C431.51 124.849 440.278 123.554 448.315 126.529C457.39 129.888 461.759 136.271 461.759 145.678" stroke="#666666" stroke-width="2" stroke-linecap="round" stroke-linejoin="round"></path><path d="M215.964 150.943C215.964 150.943 211.93 150.607 208.905 153.631C205.88 156.654 205.866 160.485 205.866 160.485" stroke="#666666" stroke-width="2" stroke-miterlimit="10" stroke-linecap="round" stroke-linejoin="round"></path><path d="M289.535 152.393C294.436 153.061 297.333 156.94 298.168 158.796C303.588 154.475 307.357 159.667 307.357 162.264V166.034H199.688C200.36 158.796 201.468 152.393 210.107 147.778C218.746 143.163 225.268 144.09 229.162 145.82C230.833 143.593 237.383 134.57 249.714 140.7C257.241 144.443 257.883 153.321 257.512 156.847C258.811 154.805 262.802 150.611 268.372 150.166C273.941 149.72 277.933 153.506 279.232 155.455C280.624 154.156 284.634 151.725 289.535 152.393Z" fill="white"></path><path d="M322.935 164.43L201.776 164.43" stroke="#666666" stroke-width="2" stroke-miterlimit="10" stroke-linecap="round" stroke-linejoin="round"></path><path d="M307.05 163.129C307.915 158.856 302.846 154.564 298.168 158.796C296.497 153.506 287.308 149.052 279.232 155.455C275.891 149.052 263.916 147.103 257.512 157.125C258.347 151.836 255.841 142.649 246.93 139.587C236.069 135.855 229.386 142.649 229.386 142.649" stroke="#666666" stroke-width="2" stroke-linecap="round" stroke-linejoin="round"></path><path d="M235.791 145.621C229.937 142.158 221.169 140.862 213.132 143.837C204.057 147.197 199.687 153.58 199.687 162.986" stroke="#666666" stroke-width="2" stroke-linecap="round" stroke-linejoin="round"></path><path d="M112.695 146.598C117.596 147.266 120.492 151.145 121.327 153.001C126.747 148.68 130.517 153.873 130.517 156.469V160.239H22.8471C23.5193 153.001 24.6277 146.598 33.2663 141.983C41.905 137.368 48.4267 138.295 52.3211 140.026C53.9919 137.799 60.5426 128.776 72.8736 134.906C80.4006 138.648 81.042 147.526 80.6707 151.053C81.9702 149.011 85.9616 144.817 91.531 144.371C97.1004 143.926 101.092 147.712 102.391 149.661C103.784 148.361 107.794 145.93 112.695 146.598Z" fill="white"></path><path d="M130.209 157.334C131.074 153.062 126.005 148.77 121.327 153.001C119.656 147.712 110.467 143.258 102.391 149.661C99.0497 143.258 87.0755 141.309 80.6708 151.331C81.5062 146.041 78.9999 136.855 70.0889 133.792C59.2286 130.06 52.5454 136.855 52.5454 136.855" stroke="#666666" stroke-width="2" stroke-linecap="round" stroke-linejoin="round"></path><path d="M58.9497 142.422C53.0961 138.96 44.3277 137.664 36.2909 140.639C27.216 143.999 22.8467 150.382 22.8467 159.788" stroke="#666666" stroke-width="2" stroke-linecap="round" stroke-linejoin="round"></path><path d="M500.161 68.9386H493.44C492.125 68.9386 491.054 67.864 491.054 66.5452V59.8044C491.054 58.4855 492.125 57.4109 493.44 57.4109H500.161C501.476 57.4109 502.547 58.4855 502.547 59.8044V66.5452C502.547 67.864 501.476 68.9386 500.161 68.9386Z" fill="#40BFEF" stroke="#666666" stroke-width="2" stroke-miterlimit="10" stroke-linecap="round" stroke-linejoin="round"></path><path d="M493.684 64.1029V66.1056H495.973" stroke="white" stroke-width="2" stroke-miterlimit="10" stroke-linecap="round" stroke-linejoin="round"></path><path d="M498.018 59.8533H500.064V62.0026" stroke="white" stroke-width="2" stroke-miterlimit="10" stroke-linecap="round" stroke-linejoin="round"></path><path d="M492.661 55.6525V52.6729" stroke="#666666" stroke-width="2" stroke-miterlimit="10" stroke-linecap="round" stroke-linejoin="round"></path><path d="M495.486 55.6525V52.6729" stroke="#666666" stroke-width="2" stroke-miterlimit="10" stroke-linecap="round" stroke-linejoin="round"></path><path d="M498.31 55.6525V52.6729" stroke="#666666" stroke-width="2" stroke-miterlimit="10" stroke-linecap="round" stroke-linejoin="round"></path><path d="M501.135 55.6525V52.6729" stroke="#666666" stroke-width="2" stroke-miterlimit="10" stroke-linecap="round" stroke-linejoin="round"></path><path d="M492.661 73.4325V70.4529" stroke="#666666" stroke-width="2" stroke-miterlimit="10" stroke-linecap="round" stroke-linejoin="round"></path><path d="M495.486 73.4325V70.4529" stroke="#666666" stroke-width="2" stroke-miterlimit="10" stroke-linecap="round" stroke-linejoin="round"></path><path d="M498.31 73.4325V70.4529" stroke="#666666" stroke-width="2" stroke-miterlimit="10" stroke-linecap="round" stroke-linejoin="round"></path><path d="M501.135 73.4325V70.4529" stroke="#666666" stroke-width="2" stroke-miterlimit="10" stroke-linecap="round" stroke-linejoin="round"></path><path d="M486 58.7339H488.971" stroke="#666666" stroke-width="2" stroke-miterlimit="10" stroke-linecap="round" stroke-linejoin="round"></path><path d="M486 61.5183H488.971" stroke="#666666" stroke-width="2" stroke-miterlimit="10" stroke-linecap="round" stroke-linejoin="round"></path><path d="M486 64.3514H488.971" stroke="#666666" stroke-width="2" stroke-miterlimit="10" stroke-linecap="round" stroke-linejoin="round"></path><path d="M486 67.1843H488.971" stroke="#666666" stroke-width="2" stroke-miterlimit="10" stroke-linecap="round" stroke-linejoin="round"></path><path d="M504.822 58.7339H507.793" stroke="#666666" stroke-width="2" stroke-miterlimit="10" stroke-linecap="round" stroke-linejoin="round"></path><path d="M504.822 61.5183H507.793" stroke="#666666" stroke-width="2" stroke-miterlimit="10" stroke-linecap="round" stroke-linejoin="round"></path><path d="M504.822 64.3514H507.793" stroke="#666666" stroke-width="2" stroke-miterlimit="10" stroke-linecap="round" stroke-linejoin="round"></path><path d="M504.822 67.1843H507.793" stroke="#666666" stroke-width="2" stroke-miterlimit="10" stroke-linecap="round" stroke-linejoin="round"></path><path d="M537.161 24.0546H530.44C529.125 24.0546 528.054 22.98 528.054 21.6611V14.9203C528.054 13.6015 529.125 12.5269 530.44 12.5269H537.161C538.476 12.5269 539.547 13.6015 539.547 14.9203V21.6611C539.547 22.98 538.476 24.0546 537.161 24.0546Z" fill="#40BFEF" stroke="#666666" stroke-width="2" stroke-miterlimit="10" stroke-linecap="round" stroke-linejoin="round"></path><path d="M530.684 19.2189V21.2216H532.973" stroke="white" stroke-width="2" stroke-miterlimit="10" stroke-linecap="round" stroke-linejoin="round"></path><path d="M535.018 14.9693H537.064V17.1186" stroke="white" stroke-width="2" stroke-miterlimit="10" stroke-linecap="round" stroke-linejoin="round"></path><path d="M529.661 10.7684V7.78882" stroke="#666666" stroke-width="2" stroke-miterlimit="10" stroke-linecap="round" stroke-linejoin="round"></path><path d="M532.486 10.7684V7.78882" stroke="#666666" stroke-width="2" stroke-miterlimit="10" stroke-linecap="round" stroke-linejoin="round"></path><path d="M535.31 10.7684V7.78882" stroke="#666666" stroke-width="2" stroke-miterlimit="10" stroke-linecap="round" stroke-linejoin="round"></path><path d="M538.135 10.7684V7.78882" stroke="#666666" stroke-width="2" stroke-miterlimit="10" stroke-linecap="round" stroke-linejoin="round"></path><path d="M529.661 28.5484V25.5688" stroke="#666666" stroke-width="2" stroke-miterlimit="10" stroke-linecap="round" stroke-linejoin="round"></path><path d="M532.486 28.5484V25.5688" stroke="#666666" stroke-width="2" stroke-miterlimit="10" stroke-linecap="round" stroke-linejoin="round"></path><path d="M535.31 28.5484V25.5688" stroke="#666666" stroke-width="2" stroke-miterlimit="10" stroke-linecap="round" stroke-linejoin="round"></path><path d="M538.135 28.5484V25.5688" stroke="#666666" stroke-width="2" stroke-miterlimit="10" stroke-linecap="round" stroke-linejoin="round"></path><path d="M523 13.8499H525.971" stroke="#666666" stroke-width="2" stroke-miterlimit="10" stroke-linecap="round" stroke-linejoin="round"></path><path d="M523 16.6342H525.971" stroke="#666666" stroke-width="2" stroke-miterlimit="10" stroke-linecap="round" stroke-linejoin="round"></path><path d="M523 19.4673H525.971" stroke="#666666" stroke-width="2" stroke-miterlimit="10" stroke-linecap="round" stroke-linejoin="round"></path><path d="M523 22.3003H525.971" stroke="#666666" stroke-width="2" stroke-miterlimit="10" stroke-linecap="round" stroke-linejoin="round"></path><path d="M541.822 13.8499H544.793" stroke="#666666" stroke-width="2" stroke-miterlimit="10" stroke-linecap="round" stroke-linejoin="round"></path><path d="M541.822 16.6342H544.793" stroke="#666666" stroke-width="2" stroke-miterlimit="10" stroke-linecap="round" stroke-linejoin="round"></path><path d="M541.822 19.4673H544.793" stroke="#666666" stroke-width="2" stroke-miterlimit="10" stroke-linecap="round" stroke-linejoin="round"></path><path d="M541.822 22.3003H544.793" stroke="#666666" stroke-width="2" stroke-miterlimit="10" stroke-linecap="round" stroke-linejoin="round"></path><path d="M371.809 142.743C373.332 142.743 375.237 142.235 375.999 141.981C376.126 140.712 376.685 138.02 377.904 137.41C379.123 136.801 380.951 137.156 381.713 137.41C382.221 136.267 383.389 133.677 383.999 132.458C384.76 130.934 384.38 127.887 383.618 125.601C382.856 123.316 379.808 120.268 375.999 118.506C372.19 116.744 367.618 118.744 364.571 120.268C361.523 121.792 357.714 129.791 356.571 131.315C355.657 132.534 353.397 134.363 352.381 135.125L358.476 145.029C358.857 144.902 359.923 144.496 361.142 143.886C362.666 143.124 369.904 142.743 371.809 142.743Z" fill="#40BFEF"></path><path d="M377.122 125.748C376.813 125.748 376.505 125.593 376.35 125.439C375.423 124.667 374.342 124.049 373.261 123.74C372.643 123.585 372.334 122.968 372.489 122.35C372.643 121.732 373.261 121.423 373.879 121.578C375.423 122.041 376.813 122.813 377.895 123.894C378.358 124.358 378.358 124.976 377.895 125.439C377.74 125.748 377.431 125.748 377.122 125.748Z" fill="#666666"></path><path d="M354.108 149.996C353.953 149.996 353.799 149.996 353.49 149.996C352.872 149.842 352.409 149.533 352.254 149.07L346.23 138.876C345.613 137.795 345.922 136.559 347.003 135.941L347.929 135.324C348.238 135.169 348.547 135.015 348.856 135.015C349.011 134.706 349.32 134.397 349.629 134.242L350.555 133.625C351.019 133.316 351.636 133.316 352.254 133.47C352.872 133.625 353.336 133.934 353.49 134.397L359.514 144.591C360.132 145.672 359.823 146.907 358.742 147.525L357.815 148.143C357.506 148.297 357.197 148.452 356.888 148.452C356.734 148.761 356.425 149.07 356.116 149.224L355.189 149.842C354.88 149.842 354.417 149.996 354.108 149.996ZM348.238 137.64L354.108 147.679L354.88 147.216C354.571 146.753 354.726 145.981 355.343 145.672C355.807 145.363 356.425 145.517 356.888 145.981L357.66 145.517L351.791 135.478L351.019 135.941C351.328 136.405 351.173 137.177 350.555 137.486C350.092 137.795 349.474 137.64 349.011 137.177L348.238 137.64Z" fill="#666666"></path><path d="M357.661 130.999C357.043 130.999 356.58 130.536 356.58 129.918V122.35C356.58 121.732 357.043 121.269 357.661 121.269C358.279 121.269 358.742 121.732 358.742 122.35V129.918C358.896 130.536 358.279 130.999 357.661 130.999Z" fill="#666666"></path><path d="M364.767 112.774C363.222 112.774 361.214 112.156 359.515 108.913C358.588 107.214 358.125 105.36 358.125 103.198V103.044C358.125 101.345 359.052 99.8003 360.442 99.0281C361.369 98.4103 363.068 97.7925 364.921 97.7925C366.466 97.7925 368.165 98.2558 369.709 99.337C370.945 100.109 371.717 101.654 371.717 103.198C371.717 105.206 371.254 107.214 370.327 108.913C368.628 112.156 366.311 112.774 364.767 112.774ZM364.767 110.457C364.921 110.457 364.921 110.457 364.767 110.457C366.157 110.457 367.392 109.531 368.319 107.832C369.091 106.442 369.4 104.897 369.4 103.198C369.4 102.426 368.937 101.654 368.319 101.345C367.547 100.727 366.157 100.109 364.767 100.109C363.377 100.109 362.141 100.573 361.369 101.036C360.596 101.499 360.133 102.271 360.133 103.044V103.198C360.133 104.897 360.442 106.442 361.214 107.832C362.295 109.685 363.531 110.457 364.767 110.457Z" fill="#666666"></path><path d="M370.635 167.294H368.164C366.774 167.294 365.693 166.213 365.693 164.823V143.355V143.2C365.538 142.582 366.001 141.965 366.619 141.965C367.237 141.81 367.855 142.274 367.855 142.891C367.855 143.046 367.855 143.2 367.855 143.355V164.823C367.855 164.977 368.009 164.978 368.009 164.978H370.481C370.635 164.978 370.635 164.823 370.635 164.823V142.737C370.635 142.119 371.099 141.656 371.716 141.656C372.334 141.656 372.798 142.119 372.798 142.737V164.823C373.107 166.213 372.025 167.294 370.635 167.294Z" fill="#666666"></path><path d="M361.522 167.295H359.051C357.661 167.295 356.58 166.214 356.58 164.823V146.753C356.58 146.135 357.043 145.672 357.661 145.672C358.279 145.672 358.742 146.135 358.742 146.753V164.669C358.742 164.823 358.896 164.823 358.896 164.823H361.368C361.522 164.823 361.522 164.669 361.522 164.669V143.664C361.522 143.046 361.986 142.583 362.603 142.583C363.221 142.583 363.685 143.046 363.685 143.664V164.823C363.994 166.214 362.912 167.295 361.522 167.295Z" fill="#666666"></path><path d="M351.791 135.478C351.173 135.478 350.709 135.015 350.709 134.397V120.805C350.709 116.944 353.953 113.701 357.815 113.701H372.179C375.577 113.701 378.512 116.017 379.13 119.261C379.284 119.879 378.821 120.496 378.203 120.651C377.585 120.805 376.967 120.342 376.813 119.724C376.349 117.562 374.342 115.863 372.025 115.863H357.66C355.034 115.863 352.872 118.025 352.872 120.651V134.242C352.872 135.015 352.409 135.478 351.791 135.478Z" fill="#666666"></path><path d="M378.049 167.295H351.791C351.173 167.295 350.709 166.832 350.709 166.214C350.709 165.596 351.173 165.133 351.791 165.133H378.049C378.666 165.133 379.13 165.596 379.13 166.214C379.13 166.832 378.666 167.295 378.049 167.295Z" fill="#666666"></path><path d="M349.629 149.378C349.32 149.378 349.166 149.378 348.857 149.224C348.085 149.069 347.621 148.606 347.158 147.988L344.378 143.2C343.605 141.965 344.069 140.266 345.304 139.494L347.158 138.413C347.621 138.104 348.393 138.258 348.702 138.876L353.027 146.444C353.182 146.753 353.182 147.062 353.182 147.371C353.182 147.679 352.873 147.834 352.718 147.988L350.865 149.069C350.71 149.224 350.247 149.378 349.629 149.378ZM347.621 141.038L346.694 141.656C346.386 141.81 346.386 142.119 346.54 142.274L349.32 147.062C349.475 147.216 349.475 147.216 349.629 147.371C349.629 147.371 349.784 147.371 349.938 147.371L350.865 146.753L347.621 141.038Z" fill="#666666"></path><path d="M358.742 146.135C358.279 146.135 357.97 145.98 357.815 145.517L351.946 135.323C351.792 135.015 351.792 134.706 351.792 134.397C351.792 134.088 352.1 133.933 352.255 133.779C352.255 133.779 355.962 131.617 360.132 124.203C361.213 121.886 363.067 120.033 365.384 118.643C371.717 114.936 380.057 117.099 383.764 123.431C386.39 128.064 386.081 133.779 382.992 138.104C382.838 138.412 382.529 138.567 382.22 138.567C381.911 138.567 381.602 138.412 381.293 138.258C380.83 137.795 379.594 137.64 378.513 138.258C377.277 138.876 376.659 140.111 377.123 140.884C377.123 140.884 377.123 141.038 377.277 141.038C377.586 141.347 377.586 141.656 377.586 142.119C377.431 142.428 377.277 142.737 376.814 142.891C375.115 143.509 373.416 143.818 371.562 143.664C363.067 143.818 359.36 145.826 359.36 145.826C359.051 146.135 358.897 146.135 358.742 146.135ZM354.263 135.169L359.205 143.664C360.904 142.891 364.92 141.81 371.562 141.656C372.643 141.656 373.725 141.656 374.806 141.347C374.497 139.648 375.424 137.64 377.432 136.559C378.976 135.787 380.521 135.632 381.756 136.25C383.764 132.698 383.919 128.373 381.756 124.821C378.667 119.415 371.717 117.716 366.465 120.805C364.612 121.886 363.067 123.585 362.14 125.439C358.742 131.308 355.653 134.088 354.263 135.169Z" fill="#666666"></path><path d="M378.358 143.973C376.814 143.973 375.578 143.355 374.96 142.119C373.879 140.266 374.96 137.64 377.277 136.405C378.358 135.787 379.594 135.633 380.675 135.787C381.911 135.941 382.838 136.559 383.301 137.64C384.382 139.494 383.301 142.119 380.984 143.355C380.212 143.818 379.285 143.973 378.358 143.973ZM379.903 138.104C379.44 138.104 378.822 138.258 378.358 138.567C377.123 139.185 376.505 140.42 376.968 141.193C377.432 141.965 378.822 142.119 379.903 141.502C381.139 140.884 381.756 139.648 381.293 138.876C380.984 138.413 380.521 138.258 380.212 138.258C380.212 138.104 380.057 138.104 379.903 138.104Z" fill="#666666"></path><path d="M152.751 138.035H131.981L122.029 128.948V126.784H142.799L152.751 135.871V138.035Z" fill="white"></path><path d="M185.205 169.622V138.035H154.482V169.622H185.205Z" fill="white"></path><path d="M152.751 138.035H131.981L122.029 128.948V126.784H142.799L152.751 135.871V138.035Z" stroke="black"></path><path d="M185.205 169.622V138.035H154.482V169.622H185.205Z" stroke="black"></path><path d="M149.289 121.592L153.184 135.438L142.799 128.082L141.068 127.217L138.904 125.919C136.597 124.188 131.721 120.293 130.683 118.563C129.385 116.399 130.25 112.505 130.25 110.341C130.25 108.61 131.981 107.312 132.846 106.879L136.308 114.668L145.395 111.639C144.674 109.331 143.231 104.629 143.231 104.283C143.231 103.937 143.808 103.274 144.097 102.985C146.405 104.716 151.28 108.87 152.318 111.639C153.357 114.409 150.732 119.428 149.289 121.592Z" fill="#40BFEF"></path><path d="M145.395 136.736L135.01 127.217H128.952L139.77 137.602V169.19H145.395V136.736Z" fill="#40BFEF"></path><path d="M149.289 121.592L153.184 135.438L142.799 128.082L141.068 127.217L138.904 125.919C136.597 124.188 131.721 120.293 130.683 118.563C129.385 116.399 130.25 112.505 130.25 110.341C130.25 108.61 131.981 107.312 132.846 106.879L136.308 114.668L145.395 111.639C144.674 109.331 143.231 104.629 143.231 104.283C143.231 103.937 143.808 103.274 144.097 102.985C146.405 104.716 151.28 108.87 152.318 111.639C153.357 114.409 150.732 119.428 149.289 121.592Z" stroke="black"></path><path d="M145.395 136.736L135.01 127.217H128.952L139.77 137.602V169.19H145.395V136.736Z" stroke="black"></path><path d="M169.194 146.256C168.762 147.266 167.896 149.372 167.896 149.718L163.136 150.583V153.179L166.165 155.776L165.3 158.372V160.968H167.031L170.06 159.237L172.656 160.968H174.82V159.237L173.954 155.776L176.118 154.478L177.416 151.449L176.118 150.583H172.656L171.358 146.256L170.06 145.391L169.194 146.256Z" fill="#40BFEF"></path><path d="M167.031 121.592C166.339 122.63 167.319 125.774 167.896 127.217H165.3L162.271 129.38L161.838 128.082L159.242 127.65L157.511 126.784V121.159L158.809 119.428H161.406L162.271 116.832L160.973 115.101V112.937L164.002 109.908L166.165 109.043L167.896 111.207L171.358 109.908V107.312L172.656 106.014H178.281L179.147 109.908L181.31 111.207L184.772 109.043L189.532 114.236L187.801 116.832L189.099 119.428L192.993 121.159L193.426 127.217L182.608 126.784V120.726C181.743 118.995 178.974 115.534 174.82 115.534C169.627 115.534 167.896 120.293 167.031 121.592Z" fill="#40BFEF"></path><path d="M169.194 146.256C168.762 147.266 167.896 149.372 167.896 149.718L163.136 150.583V153.179L166.165 155.776L165.3 158.372V160.968H167.031L170.06 159.237L172.656 160.968H174.82V159.237L173.954 155.776L176.118 154.478L177.416 151.449L176.118 150.583H172.656L171.358 146.256L170.06 145.391L169.194 146.256Z" stroke="black"></path><path d="M167.031 121.592C166.339 122.63 167.319 125.774 167.896 127.217H165.3L162.271 129.38L161.838 128.082L159.242 127.65L157.511 126.784V121.159L158.809 119.428H161.406L162.271 116.832L160.973 115.101V112.937L164.002 109.908L166.165 109.043L167.896 111.207L171.358 109.908V107.312L172.656 106.014H178.281L179.147 109.908L181.31 111.207L184.772 109.043L189.532 114.236L187.801 116.832L189.099 119.428L192.993 121.159L193.426 127.217L182.608 126.784V120.726C181.743 118.995 178.974 115.534 174.82 115.534C169.627 115.534 167.896 120.293 167.031 121.592Z" stroke="black"></path><path d="M154.133 170.937H131.444C130.756 170.937 130.24 170.422 130.24 169.734V137.592C130.24 136.904 130.756 136.389 131.444 136.389H154.133C154.821 136.389 155.337 136.904 155.337 137.592V169.734C155.509 170.422 154.821 170.937 154.133 170.937ZM132.647 168.531H152.93V138.795H132.647V168.531Z" fill="#666666"></path><path d="M145.538 170.937H140.21C139.522 170.937 139.006 170.422 139.006 169.734V137.592C139.006 136.904 139.522 136.389 140.21 136.389H145.538C146.226 136.389 146.742 136.904 146.742 137.592V169.734C146.742 170.422 146.226 170.937 145.538 170.937ZM141.413 168.531H144.335V138.795H141.413V168.531Z" fill="#666666"></path><path d="M146.227 138.795H139.867C139.523 138.795 139.179 138.623 139.008 138.451L128.006 128.138C127.663 127.794 127.491 127.279 127.663 126.763C127.835 126.247 128.35 125.904 128.866 125.904H135.226C135.57 125.904 135.914 126.076 136.085 126.247L147.087 136.56C147.43 136.904 147.602 137.42 147.43 137.935C147.258 138.451 146.743 138.795 146.227 138.795ZM140.383 136.217H143.133L134.882 128.482H132.132L140.383 136.217Z" fill="#666666"></path><path d="M154.134 138.795H131.444C131.1 138.795 130.756 138.623 130.584 138.451L119.411 128.138C119.067 127.794 118.896 127.279 119.067 126.763C119.239 126.247 119.755 125.904 120.271 125.904H142.961C143.304 125.904 143.648 126.076 143.82 126.247L154.993 136.56C155.337 136.904 155.509 137.42 155.337 137.935C155.165 138.451 154.649 138.795 154.134 138.795ZM131.959 136.217H151.04L142.617 128.482H123.537L131.959 136.217Z" fill="#666666"></path><path d="M184.902 170.937H154.133C153.446 170.937 152.93 170.422 152.93 169.734V137.592C152.93 136.904 153.446 136.389 154.133 136.389H184.902C185.59 136.389 186.106 136.904 186.106 137.592V169.734C186.277 170.422 185.59 170.937 184.902 170.937ZM155.509 168.531H183.699V138.795H155.509V168.531Z" fill="#666666"></path><path d="M184.902 138.795H154.133C153.618 138.795 153.102 138.451 152.93 137.935C152.758 137.42 152.93 136.904 153.274 136.56L164.447 126.247C164.619 126.076 164.963 125.904 165.307 125.904H196.075C196.591 125.904 197.107 126.247 197.279 126.763C197.451 127.279 197.279 127.794 196.935 128.138L185.762 138.451C185.59 138.623 185.246 138.795 184.902 138.795ZM157.399 136.217H184.387L192.809 128.482H165.822L157.399 136.217Z" fill="#666666"></path><path d="M182.496 128.482H167.885C167.37 128.482 167.026 128.138 166.682 127.794C165.995 126.591 165.823 125.216 165.823 123.669C165.823 118.513 169.948 114.387 175.105 114.387C180.262 114.387 184.387 118.513 184.387 123.669C184.387 125.044 184.043 126.419 183.528 127.794C183.356 128.138 183.012 128.482 182.496 128.482ZM168.745 125.904H181.637C181.981 125.216 181.981 124.357 181.981 123.669C181.981 119.888 178.887 116.794 175.105 116.794C171.323 116.794 168.229 119.888 168.229 123.669C168.401 124.528 168.401 125.216 168.745 125.904Z" fill="#666666"></path><path d="M162.556 131.06H162.384C162.04 131.06 161.696 130.716 161.525 130.373C160.493 128.31 159.978 126.076 159.978 123.669C159.978 115.247 166.853 108.372 175.276 108.372C183.699 108.372 190.575 115.247 190.575 123.669C190.575 124.872 190.403 126.248 190.059 127.451C189.887 127.966 189.371 128.31 188.856 128.31H165.994L163.415 130.545C163.244 130.888 162.9 131.06 162.556 131.06ZM175.276 110.95C168.228 110.95 162.384 116.622 162.384 123.841C162.384 125.216 162.556 126.591 163.072 127.794L164.619 126.419C164.791 126.248 165.134 126.076 165.478 126.076H187.824C187.996 125.388 187.996 124.529 187.996 123.841C187.996 116.622 182.324 110.95 175.276 110.95Z" fill="#666666"></path><path d="M162.556 131.06H162.384C162.041 131.06 161.697 130.716 161.525 130.373C161.353 129.857 161.009 129.341 160.837 128.998H159.634C157.915 128.998 156.54 127.622 156.54 125.904V121.607C156.54 119.888 157.915 118.513 159.634 118.513H160.837C161.009 118.169 161.181 117.653 161.353 117.309L160.494 116.45C159.978 115.934 159.634 115.075 159.634 114.216C159.634 113.356 159.978 112.669 160.494 111.981L163.588 108.887C164.791 107.684 166.854 107.684 168.057 108.887L168.916 109.747C169.26 109.575 169.776 109.403 170.12 109.231V108.028C170.12 106.309 171.495 104.934 173.214 104.934H177.511C179.23 104.934 180.605 106.309 180.605 108.028V109.231C180.949 109.403 181.465 109.575 181.808 109.747L182.668 108.887C183.871 107.684 185.934 107.684 187.137 108.887L190.231 111.981C190.747 112.497 191.091 113.356 191.091 114.216C191.091 115.075 190.747 115.763 190.231 116.45L189.372 117.309C189.544 117.653 189.715 118.169 189.887 118.513H191.091C192.81 118.513 194.185 119.888 194.185 121.607V125.904C194.185 126.763 193.841 127.622 193.153 128.31C192.981 128.482 192.638 128.654 192.294 128.654H166.166L163.588 130.888C163.244 130.888 162.9 131.06 162.556 131.06ZM159.634 120.919C159.29 120.919 158.947 121.263 158.947 121.607V125.904C158.947 126.247 159.29 126.591 159.634 126.591H161.697C162.213 126.591 162.728 126.935 162.9 127.451C162.9 127.622 162.9 127.622 163.072 127.794L164.619 126.419C164.791 126.247 165.135 126.075 165.478 126.075H191.434V125.904V121.607C191.434 121.263 191.091 120.919 190.747 120.919H188.684C188.168 120.919 187.653 120.575 187.481 120.06C187.137 119.2 186.965 118.341 186.449 117.653C186.106 117.138 186.278 116.622 186.621 116.106L188.168 114.559C188.34 114.387 188.34 114.216 188.34 114.044C188.34 113.872 188.34 113.7 188.168 113.528L185.074 110.434C184.902 110.262 184.387 110.262 184.215 110.434L182.668 111.981C182.324 112.325 181.636 112.497 181.121 112.153C180.433 111.809 179.574 111.465 178.714 111.122C178.199 110.95 177.855 110.434 177.855 109.918V107.856C177.855 107.512 177.511 107.168 177.167 107.168H172.87C172.526 107.168 172.182 107.512 172.182 107.856V109.918C172.182 110.434 171.839 110.95 171.323 111.122C170.463 111.465 169.604 111.637 168.916 112.153C168.401 112.497 167.885 112.325 167.369 111.981L165.822 110.434C165.65 110.262 165.478 110.262 165.307 110.262C165.135 110.262 164.963 110.262 164.791 110.434L161.697 113.528C161.525 113.7 161.525 113.872 161.525 114.044C161.525 114.216 161.525 114.387 161.697 114.559L163.244 116.106C163.588 116.45 163.76 117.138 163.416 117.653C163.072 118.341 162.728 119.2 162.384 120.06C162.213 120.575 161.697 120.919 161.181 120.919H159.634Z" fill="#666666"></path><path d="M153.961 138.623C153.618 138.623 153.274 138.451 153.102 138.279L142.445 128.482H139.35C138.835 128.482 138.319 128.138 138.147 127.623L137.632 125.904C134.194 125.044 131.271 122.638 129.724 119.544C127.662 115.247 128.005 110.263 130.928 106.481C131.443 105.794 132.131 105.622 132.99 105.622C133.85 105.794 134.366 106.309 134.709 106.997L136.944 113.7L144.163 111.466L141.929 104.762C141.757 104.075 141.929 103.215 142.445 102.7C142.96 102.184 143.82 102.012 144.679 102.184C148.461 103.387 151.555 106.481 152.758 110.263C153.961 114.216 153.102 118.685 150.523 121.951L155.336 137.076C155.508 137.592 155.337 138.279 154.821 138.451C154.477 138.451 154.305 138.623 153.961 138.623ZM140.21 125.904H142.96C143.304 125.904 143.648 126.076 143.82 126.248L151.383 133.123L147.773 121.779C147.601 121.435 147.773 120.919 148.117 120.576C150.523 117.997 151.383 114.216 150.352 110.778C149.492 108.028 147.257 105.622 144.679 104.59L146.914 111.809C147.086 112.497 146.742 113.185 146.054 113.356L136.428 116.45C136.084 116.622 135.741 116.45 135.397 116.45C135.053 116.278 134.881 116.107 134.709 115.763L132.475 108.544C130.584 111.466 130.412 115.247 131.959 118.341C133.334 120.919 135.741 122.982 138.835 123.498C139.35 123.669 139.694 123.841 139.694 124.357L140.21 125.904Z" fill="#666666"></path><path d="M173.729 162.859C173.214 162.859 172.526 162.687 172.182 162.171L170.291 160.452L168.229 162.171C167.369 162.859 166.166 163.031 165.306 162.343C164.275 161.655 163.759 160.28 164.103 159.077L164.791 156.499C164.791 156.327 164.791 155.983 164.619 155.983L162.728 154.265C161.869 153.405 161.525 152.202 161.869 150.999C162.212 149.967 163.244 149.108 164.275 149.108H166.682C166.682 149.108 166.854 149.108 166.854 148.936L167.541 146.358C167.885 145.155 168.916 144.295 170.119 144.295C171.323 144.295 172.354 145.155 172.698 146.358L173.385 148.936C173.385 149.108 173.557 149.108 173.557 149.108H175.964C176.995 149.108 178.027 149.796 178.37 150.999C178.886 152.202 178.542 153.577 177.511 154.265L175.62 155.983C175.448 156.155 175.448 156.327 175.448 156.499L176.136 159.077C176.48 160.452 175.964 161.655 174.932 162.343C174.761 162.687 174.245 162.859 173.729 162.859ZM164.275 151.686C164.275 151.686 164.103 151.858 164.103 152.03C164.103 152.03 164.103 152.374 164.275 152.546L166.166 154.265C167.025 154.952 167.369 156.327 167.025 157.358L166.338 159.937C166.166 160.28 166.51 160.452 166.51 160.452L168.401 158.733C169.432 157.874 170.635 157.874 171.666 158.733L173.557 160.452C173.557 160.452 173.729 160.28 173.729 159.937L173.042 157.358C172.698 156.155 173.042 154.952 173.901 154.265L175.792 152.546C175.964 152.374 175.964 152.202 175.964 152.03C175.964 151.858 175.792 151.686 175.792 151.686H173.385C172.182 151.686 171.151 150.827 170.807 149.624L170.119 147.045C170.119 146.702 169.948 146.702 169.776 147.045L169.088 149.624C168.744 150.827 167.713 151.686 166.51 151.686H164.275Z" fill="#666666"></path><path fill-rule="evenodd" clip-rule="evenodd" d="M375.443 18.8981H377.21C377.446 18.8981 377.681 19.0748 377.681 19.4871L378.27 22.7265C378.329 22.9621 377.801 23.1257 377.565 23.1846L376.209 23.9045C375.208 24.199 374.501 25.0236 374.265 26.0248C374.03 27.0261 374.324 28.0274 375.031 28.7931L376.268 30.03C376.445 30.2067 376.503 30.5012 376.327 30.7368L374.836 32.736C374.728 32.8805 374.67 32.8065 374.587 32.7005C374.535 32.6337 374.472 32.5541 374.381 32.5086L373.017 32.2812C372.074 31.81 370.496 32.6215 369.612 33.2105C368.729 33.7995 368.258 34.7419 368.258 35.8021L368.316 37.0979C368.316 37.3334 368.14 37.569 367.845 37.6279L365.512 37.9665C365.336 38.0105 365.235 37.74 365.146 37.502C365.116 37.4212 365.087 37.344 365.057 37.2843L364.375 35.9198C363.963 34.9185 363.102 34.2772 362.101 34.1005C361.1 33.9238 359.624 34.4719 358.917 35.2376L357.656 36.2613C357.479 36.438 357.185 36.4969 356.949 36.3202L354.24 34.4354C354.063 34.3176 353.945 34.0231 354.063 33.7875L354.24 32.5037C354.652 31.5614 355.185 30.2083 354.596 29.3248C354.007 28.4413 352.473 27.5055 351.412 27.5055L349.587 27.5644C349.351 27.5644 349.115 27.3877 349.056 27.0932L348.467 24.6113C348.409 24.3757 348.585 24.1401 348.821 24.0223L350.47 23.3744C351.471 22.9621 352.178 22.1375 352.355 21.1362C352.391 20.9322 352.444 20.7086 352.499 20.4758C352.715 19.5661 352.964 18.5168 352.355 17.954L351.64 16.817C351.608 16.7851 351.552 16.7353 351.483 16.6738C351.17 16.3945 350.585 15.873 350.73 15.6799L351.943 13.7149C352.06 13.5382 352.355 13.4204 352.59 13.5382L354.77 14.4806C355.712 14.8929 356.772 14.7751 357.597 14.245C358.421 13.7149 358.951 12.7726 358.951 11.7713L359.827 9.53969C359.827 9.46023 359.8 9.36346 359.774 9.26783C359.721 9.07994 359.671 8.89648 359.827 8.85745L362.662 8.41403C362.957 8.35514 363.192 8.53183 363.31 8.76742L363.899 10.4755C364.194 11.4768 365.018 12.1836 366.019 12.4192C367.021 12.6548 368.022 12.3603 368.788 11.6535L370.025 10.4166C370.201 10.2399 370.496 10.181 370.731 10.3577L373.441 12.2425C373.676 12.4192 373.735 12.7137 373.617 12.9493L372.793 14.5984C372.322 15.5408 372.38 16.601 372.911 17.4845C373.441 18.368 374.383 18.8981 375.443 18.8981ZM373.927 22.275C373.927 27.4245 369.752 31.5989 364.603 31.5989C359.453 31.5989 355.279 27.4245 355.279 22.275C355.279 17.1254 359.453 12.9509 364.603 12.9509C369.752 12.9509 373.927 17.1254 373.927 22.275Z" fill="white"></path><path fill-rule="evenodd" clip-rule="evenodd" d="M363.661 5.69385C364.237 5.58087 364.662 5.94315 364.85 6.31764C364.859 6.33549 364.866 6.35391 364.873 6.37278L365.507 8.21109C365.509 8.21769 365.511 8.22433 365.513 8.23102C365.779 9.13523 366.527 9.78827 367.463 10.0085C368.38 10.2242 369.302 9.9608 370.023 9.29891L371.348 7.97435C371.669 7.65273 372.233 7.52249 372.696 7.86325L375.606 9.88769C375.61 9.89078 375.615 9.89395 375.619 9.8972C376.049 10.2196 376.168 10.7755 375.943 11.2251L375.056 13.0001C374.62 13.8713 374.673 14.8475 375.166 15.6688C375.652 16.4795 376.516 16.9693 377.501 16.9693H379.403C379.645 16.9693 379.897 17.0614 380.086 17.2662C380.266 17.4614 380.356 17.7225 380.364 18.0136L380.989 21.4513C381.05 21.7157 380.978 21.9746 380.863 22.1667C380.748 22.3575 380.555 22.5414 380.297 22.6136L378.474 23.2423C378.47 23.2436 378.466 23.2449 378.462 23.2461C378.459 23.247 378.456 23.2478 378.454 23.2486C377.549 23.5146 376.896 24.2625 376.676 25.1985C376.461 26.1151 376.724 27.0378 377.386 27.7587L378.71 29.0832C379.032 29.4048 379.162 29.9689 378.821 30.4311L376.797 33.3412C376.794 33.3456 376.791 33.35 376.787 33.3543C376.465 33.7842 375.909 33.9032 375.46 33.6784L374.192 33.0445C373.321 32.609 372.291 32.6646 371.478 33.2063C370.665 33.7486 370.225 34.6122 370.223 35.607L370.285 36.991C370.286 36.9978 370.286 37.0047 370.286 37.0116C370.286 37.4941 369.931 37.9246 369.413 38.0281L369.405 38.0296L365.931 38.6613C365.383 38.788 364.964 38.3742 364.797 38.0391C364.791 38.027 364.785 38.0146 364.78 38.002L364.084 36.2306C363.693 35.2826 362.925 34.6402 362.018 34.4802C361.075 34.3137 360.097 34.5944 359.453 35.2907C359.453 35.291 359.453 35.2913 359.452 35.2916L358.123 36.7478C358.12 36.7504 358.118 36.753 358.116 36.7556C358.113 36.758 358.111 36.7604 358.109 36.7627C357.787 37.0843 357.223 37.2146 356.761 36.8738L353.854 34.8515C353.662 34.7218 353.528 34.5196 353.462 34.3106C353.396 34.0982 353.387 33.8352 353.508 33.5861L354.264 31.8849C354.264 31.8845 354.265 31.884 354.265 31.8836C354.649 31.0031 354.592 30.0274 354.049 29.2134C353.506 28.3992 352.641 27.96 351.645 27.958L349.688 28.0211C349.685 28.0212 349.682 28.0213 349.68 28.0213C349.678 28.0213 349.675 28.0213 349.673 28.0213C349.191 28.0213 348.76 27.6661 348.657 27.1486L348.655 27.1408L348.023 23.6666C347.897 23.1182 348.31 22.6998 348.646 22.5322C348.658 22.5262 348.67 22.5207 348.683 22.5157L350.454 21.8198C351.402 21.4283 352.044 20.6606 352.204 19.7539C352.371 18.8104 352.09 17.832 351.394 17.1886C351.394 17.1884 351.393 17.1881 351.393 17.1878L349.937 15.8583C349.932 15.8537 349.927 15.8489 349.922 15.844C349.6 15.5224 349.47 14.9583 349.811 14.4962L351.833 11.5891C351.963 11.3972 352.165 11.2631 352.374 11.1977C352.586 11.1316 352.848 11.123 353.096 11.2424L355.432 12.2524L355.434 12.2532C356.301 12.6328 357.282 12.5261 358.048 12.0337C358.808 11.5452 359.297 10.6738 359.297 9.75394V7.34512C359.297 7.06927 359.431 6.83749 359.576 6.68005C359.724 6.52026 359.926 6.38914 360.149 6.33336C360.158 6.33097 360.168 6.32889 360.178 6.32712L363.661 5.69385ZM363.932 6.60204C363.904 6.5857 363.876 6.57841 363.835 6.58671L363.827 6.58821L360.361 7.21846C360.33 7.22867 360.283 7.25509 360.245 7.29706C360.216 7.32833 360.209 7.34849 360.207 7.35295V9.75394C360.207 10.9894 359.555 12.1464 358.54 12.7989C357.531 13.4473 356.23 13.5943 355.07 13.087C355.07 13.0869 355.069 13.0867 355.069 13.0866L352.725 12.0731C352.718 12.0698 352.71 12.0662 352.703 12.0624C352.701 12.0618 352.684 12.0541 352.645 12.066C352.628 12.0716 352.611 12.0799 352.599 12.0886C352.59 12.0948 352.587 12.0992 352.586 12.0998L352.582 12.1055L350.554 15.0215C350.55 15.0259 350.547 15.0303 350.544 15.0346C350.522 15.0639 350.518 15.0887 350.521 15.1127C350.524 15.1403 350.538 15.1711 350.56 15.1958L352.01 16.5194C352.961 17.3974 353.314 18.7006 353.1 19.912C352.88 21.1595 352.002 22.166 350.797 22.6623L350.79 22.6651L349.038 23.3536C348.982 23.3843 348.942 23.4235 348.923 23.4544C348.917 23.4631 348.914 23.4693 348.912 23.4731C348.914 23.4792 348.915 23.4854 348.916 23.4916L349.549 26.9732C349.572 27.0824 349.642 27.1095 349.67 27.1116L351.623 27.0485C351.628 27.0484 351.633 27.0483 351.638 27.0483C352.921 27.0483 354.082 27.6232 354.806 28.7088C355.531 29.7961 355.6 31.1019 355.098 32.2495L355.097 32.2519L354.336 33.9634C354.334 33.9671 354.333 33.9706 354.331 33.9742C354.33 33.9769 354.328 33.9795 354.327 33.9821C354.326 33.9834 354.319 34.0011 354.331 34.0392C354.336 34.0571 354.344 34.0733 354.353 34.0855C354.359 34.0943 354.364 34.0982 354.364 34.0987C354.364 34.0987 354.364 34.0987 354.364 34.0987L354.37 34.1026L357.286 36.1311C357.289 36.133 357.291 36.1349 357.294 36.1369C357.296 36.1381 357.298 36.1394 357.299 36.1406C357.328 36.1626 357.353 36.1665 357.377 36.1637C357.405 36.1605 357.436 36.1468 357.46 36.1243L358.782 34.6764L358.784 34.6746C359.662 33.7235 360.965 33.3706 362.177 33.5844C363.424 33.8045 364.431 34.6822 364.927 35.8876L364.93 35.8944L365.618 37.6469C365.649 37.7026 365.688 37.7422 365.719 37.7621C365.728 37.7677 365.734 37.7707 365.738 37.7723C365.744 37.7709 365.75 37.7696 365.756 37.7685L369.238 37.1355C369.345 37.1129 369.373 37.0445 369.376 37.0163L369.313 35.6377C369.313 35.6308 369.313 35.6239 369.313 35.617C369.313 34.334 369.888 33.1731 370.973 32.4494C372.062 31.7233 373.441 31.6521 374.599 32.2309L375.866 32.8648C375.897 32.8804 375.931 32.8839 375.963 32.8764C375.992 32.8696 376.025 32.8521 376.056 32.8133L378.079 29.9058C378.082 29.9013 378.085 29.8969 378.088 29.8926C378.11 29.8634 378.114 29.8386 378.111 29.8145C378.108 29.7851 378.093 29.7519 378.067 29.7264L376.736 28.3952C376.732 28.391 376.727 28.3866 376.723 28.3821C375.868 27.4558 375.5 26.226 375.791 24.9901C376.077 23.7742 376.941 22.7496 378.187 22.379L380.015 21.7484C380.026 21.7447 380.037 21.7415 380.048 21.7386C380.049 21.7379 380.05 21.7367 380.052 21.735C380.061 21.7281 380.072 21.7158 380.083 21.6987C380.093 21.6816 380.098 21.6658 380.1 21.6549C380.101 21.6523 380.101 21.6503 380.101 21.649C380.1 21.6413 380.098 21.6336 380.096 21.6258L379.463 18.1394C379.458 18.1125 379.455 18.0853 379.455 18.058C379.455 17.9232 379.418 17.8841 379.417 17.8832C379.417 17.8831 379.417 17.883 379.417 17.8828C379.416 17.8815 379.414 17.879 379.403 17.879H377.501C376.204 17.879 375.04 17.2277 374.385 16.1368C373.737 15.0564 373.663 13.7505 374.242 12.5933L375.129 10.8183C375.145 10.7872 375.148 10.7535 375.141 10.7218C375.134 10.6928 375.117 10.6592 375.078 10.6286L372.17 8.60596C372.166 8.60286 372.161 8.59969 372.157 8.59645C372.128 8.57451 372.103 8.57054 372.079 8.57336C372.05 8.57683 372.016 8.59215 371.991 8.61758L370.66 9.94877C370.656 9.95306 370.651 9.95726 370.647 9.96137C369.72 10.8165 368.491 11.1848 367.255 10.894C366.039 10.6079 365.014 9.74356 364.644 8.49809L364.025 6.70303C363.996 6.65303 363.961 6.61969 363.932 6.60204ZM365.743 37.7738C365.743 37.7739 365.742 37.7739 365.741 37.7734C365.742 37.7735 365.742 37.7737 365.743 37.7738Z" fill="#666666"></path><path fill-rule="evenodd" clip-rule="evenodd" d="M364.569 13.6318C359.849 13.6318 356.023 17.4583 356.023 22.1784C356.023 26.8985 359.849 30.7249 364.569 30.7249C369.29 30.7249 373.116 26.8985 373.116 22.1784C373.116 17.4583 369.29 13.6318 364.569 13.6318ZM355.113 22.1784C355.113 16.9559 359.347 12.7222 364.569 12.7222C369.792 12.7222 374.026 16.9559 374.026 22.1784C374.026 27.4009 369.792 31.6346 364.569 31.6346C359.347 31.6346 355.113 27.4009 355.113 22.1784Z" fill="#666666"></path><path fill-rule="evenodd" clip-rule="evenodd" d="M408.774 50.8359H411.223C411.549 50.8359 411.876 51.0808 411.876 51.6521L412.692 56.1413C412.773 56.4678 412.041 56.6945 411.714 56.7761L409.835 57.7737C408.447 58.1818 407.468 59.3245 407.141 60.7121C406.815 62.0996 407.223 63.4872 408.203 64.5483L409.917 66.2623C410.161 66.5072 410.243 66.9153 409.998 67.2418L407.933 70.0123C407.782 70.2126 407.702 70.11 407.587 69.9631C407.515 69.8705 407.429 69.7603 407.302 69.6972L405.411 69.382C404.106 68.729 401.918 69.8537 400.693 70.6699C399.469 71.4861 398.816 72.792 398.816 74.2612L398.898 76.0569C398.898 76.3834 398.653 76.7099 398.245 76.7915L395.012 77.2607C394.768 77.3216 394.628 76.9468 394.505 76.617C394.463 76.5049 394.423 76.3981 394.381 76.3153L393.436 74.4244C392.864 73.0368 391.672 72.1481 390.284 71.9032C388.897 71.6583 386.852 72.4179 385.872 73.4789L384.124 74.8976C383.879 75.1425 383.471 75.2241 383.145 74.9792L379.39 72.3673C379.145 72.2041 378.982 71.796 379.145 71.4695L379.39 69.6904C379.962 68.3845 380.701 66.5094 379.884 65.2851C379.068 64.0608 376.942 62.7639 375.472 62.7639L372.942 62.8455C372.616 62.8455 372.289 62.6007 372.208 62.1926L371.391 58.7532C371.31 58.4267 371.555 58.1002 371.881 57.937L374.166 57.0391C375.554 56.4678 376.533 55.3251 376.778 53.9375C376.828 53.6548 376.902 53.3449 376.978 53.0223C377.278 51.7617 377.623 50.3076 376.778 49.5277L375.788 47.9519C375.743 47.9077 375.666 47.8388 375.57 47.7535C375.137 47.3665 374.326 46.6438 374.527 46.3762L376.207 43.6532C376.37 43.4084 376.778 43.2451 377.105 43.4083L380.125 44.7143C381.431 45.2856 382.9 45.1224 384.043 44.3878C385.185 43.6532 385.92 42.3473 385.92 40.9597L387.133 37.8672C387.133 37.7571 387.096 37.623 387.059 37.4905C386.987 37.2301 386.917 36.9759 387.133 36.9218L391.062 36.3073C391.47 36.2257 391.797 36.4705 391.96 36.797L392.776 39.164C393.184 40.5516 394.327 41.5311 395.714 41.8575C397.102 42.184 398.49 41.7759 399.551 40.7965L401.265 39.0824C401.51 38.8376 401.918 38.7559 402.244 39.0008L405.999 41.6127C406.325 41.8575 406.407 42.2656 406.244 42.5921L405.101 44.8775C404.448 46.1835 404.53 47.6527 405.264 48.877C405.999 50.1013 407.305 50.8359 408.774 50.8359ZM406.672 55.5155C406.672 62.6516 400.887 68.4365 393.751 68.4365C386.615 68.4365 380.83 62.6516 380.83 55.5155C380.83 48.3794 386.615 42.5944 393.751 42.5944C400.887 42.5944 406.672 48.3794 406.672 55.5155Z" fill="#40BFEF"></path><path fill-rule="evenodd" clip-rule="evenodd" d="M392.446 32.5378C393.244 32.3812 393.834 32.8833 394.093 33.4022C394.106 33.427 394.116 33.4525 394.125 33.4786L395.004 36.0262C395.007 36.0353 395.01 36.0445 395.013 36.0538C395.381 37.3068 396.418 38.2118 397.715 38.517C398.985 38.8159 400.264 38.4509 401.263 37.5336L403.098 35.6981C403.544 35.2524 404.326 35.0719 404.966 35.5441L408.999 38.3496C409.005 38.3538 409.011 38.3582 409.017 38.3627C409.613 38.8095 409.778 39.5799 409.466 40.203L408.236 42.6626C407.633 43.87 407.706 45.2227 408.389 46.3609C409.063 47.4844 410.261 48.1631 411.626 48.1631H414.261C414.596 48.1631 414.945 48.2907 415.207 48.5745C415.457 48.8451 415.582 49.2069 415.593 49.6103L416.459 54.3742C416.543 54.7406 416.444 55.0994 416.284 55.3657C416.125 55.63 415.858 55.8848 415.499 55.9849L412.973 56.8561C412.968 56.858 412.962 56.8597 412.957 56.8615C412.953 56.8626 412.949 56.8638 412.945 56.8649C411.692 57.2335 410.787 58.27 410.482 59.567C410.183 60.8373 410.548 62.116 411.466 63.1149L413.301 64.9504C413.747 65.3961 413.927 66.1778 413.455 66.8182L410.65 70.851C410.645 70.8572 410.641 70.8633 410.636 70.8693C410.19 71.465 409.419 71.63 408.796 71.3184L407.039 70.4399C405.832 69.8365 404.405 69.9135 403.279 70.6642C402.151 71.4156 401.543 72.6124 401.539 73.991L401.626 75.9089C401.626 75.9184 401.627 75.9279 401.627 75.9375C401.627 76.6061 401.134 77.2027 400.417 77.3461L400.406 77.3482L395.592 78.2236C394.832 78.3992 394.252 77.8257 394.02 77.3613C394.012 77.3445 394.004 77.3274 393.997 77.3099L393.033 74.8552C392.49 73.5414 391.426 72.6512 390.17 72.4295C388.862 72.1987 387.506 72.5877 386.615 73.5527C386.614 73.5531 386.614 73.5535 386.614 73.5539L384.771 75.5719C384.768 75.5755 384.765 75.5792 384.761 75.5827C384.758 75.5861 384.755 75.5893 384.752 75.5926C384.306 76.0383 383.524 76.2188 382.884 75.7465L378.855 72.944C378.589 72.7643 378.403 72.4841 378.313 72.1944C378.221 71.9001 378.209 71.5357 378.376 71.1905L379.424 68.833C379.424 68.8324 379.425 68.8317 379.425 68.8311C379.958 67.611 379.878 66.2588 379.126 65.1308C378.373 64.0025 377.175 63.3939 375.795 63.3911L373.082 63.4786C373.078 63.4787 373.075 63.4788 373.071 63.4788C373.068 63.4789 373.065 63.4789 373.062 63.4789C372.393 63.4789 371.796 62.9866 371.653 62.2695L371.651 62.2586L370.776 57.4441C370.6 56.6842 371.173 56.1044 371.638 55.8722C371.655 55.8638 371.672 55.8561 371.689 55.8493L374.144 54.8849C375.458 54.3423 376.348 53.2784 376.57 52.022C376.8 50.7146 376.411 49.3587 375.446 48.4671C375.446 48.4667 375.446 48.4663 375.445 48.466L373.427 46.6236C373.42 46.6171 373.413 46.6105 373.407 46.6038C372.961 46.1581 372.78 45.3764 373.253 44.7359L376.055 40.7073C376.235 40.4413 376.515 40.2555 376.805 40.165C377.098 40.0733 377.461 40.0614 377.805 40.2268L381.042 41.6266L381.045 41.6276C382.247 42.1537 383.606 42.0059 384.668 41.3235C385.721 40.6466 386.399 39.4389 386.399 38.1642V34.8261C386.399 34.4438 386.584 34.1226 386.785 33.9045C386.99 33.683 387.27 33.5013 387.579 33.424C387.592 33.4207 387.606 33.4178 387.619 33.4154L392.446 32.5378ZM392.821 33.7964C392.783 33.7737 392.744 33.7636 392.687 33.7751L392.676 33.7772L387.872 34.6506C387.829 34.6647 387.765 34.7013 387.712 34.7595C387.672 34.8028 387.662 34.8308 387.659 34.8369V38.1642C387.659 39.8763 386.756 41.4796 385.349 42.3839C383.952 43.2825 382.149 43.4861 380.541 42.7831C380.54 42.7829 380.54 42.7827 380.539 42.7825L377.292 41.3781C377.281 41.3734 377.27 41.3685 377.26 41.3633C377.258 41.3624 377.234 41.3517 377.181 41.3682C377.156 41.376 377.134 41.3875 377.117 41.3996C377.104 41.4082 377.099 41.4142 377.098 41.415L377.093 41.423L374.282 45.4639C374.278 45.47 374.273 45.4761 374.269 45.4821C374.238 45.5227 374.233 45.557 374.237 45.5903C374.241 45.6285 374.26 45.6713 374.291 45.7055L376.3 47.5397C377.618 48.7564 378.107 50.5623 377.811 52.2411C377.506 53.9699 376.29 55.3646 374.619 56.0525L374.61 56.0563L372.181 57.0104C372.104 57.053 372.049 57.1072 372.022 57.1501C372.014 57.1622 372.01 57.1707 372.008 57.176C372.009 57.1845 372.011 57.1931 372.013 57.2016L372.89 62.0264C372.922 62.1777 373.019 62.2153 373.057 62.2181L375.765 62.1308C375.771 62.1306 375.778 62.1305 375.785 62.1305C377.563 62.1305 379.172 62.9272 380.174 64.4315C381.179 65.9383 381.275 67.7478 380.579 69.3382L380.577 69.3416L379.523 71.7134C379.521 71.7184 379.519 71.7234 379.516 71.7283C379.515 71.732 379.513 71.7356 379.511 71.7393C379.51 71.741 379.499 71.7656 379.516 71.8184C379.524 71.8432 379.535 71.8656 379.547 71.8826C379.556 71.8947 379.562 71.9001 379.563 71.9008C379.563 71.9009 379.563 71.9008 379.563 71.9008L379.571 71.9063L383.612 74.7173C383.615 74.7199 383.619 74.7226 383.623 74.7253C383.625 74.727 383.628 74.7287 383.63 74.7305C383.67 74.7609 383.705 74.7664 383.738 74.7625C383.776 74.758 383.819 74.7391 383.853 74.7078L385.685 72.7014L385.687 72.6989C386.904 71.3808 388.71 70.8918 390.389 71.1881C392.118 71.4931 393.512 72.7094 394.2 74.3798L394.204 74.3893L395.158 76.8179C395.201 76.895 395.255 76.9499 395.298 76.9775C395.31 76.9852 395.318 76.9894 395.324 76.9916C395.332 76.9897 395.341 76.9879 395.349 76.9864L400.174 76.1092C400.323 76.0778 400.362 75.9831 400.366 75.944L400.279 74.0335C400.278 74.024 400.278 74.0144 400.278 74.0049C400.278 72.2269 401.075 70.6182 402.579 69.6153C404.089 68.6091 405.999 68.5104 407.603 69.3124L409.36 70.1909C409.403 70.2124 409.45 70.2173 409.494 70.207C409.534 70.1975 409.58 70.1732 409.623 70.1195L412.426 66.0903C412.43 66.0841 412.434 66.0781 412.439 66.0721C412.469 66.0315 412.475 65.9972 412.471 65.9639C412.466 65.923 412.445 65.877 412.41 65.8418L410.565 63.997C410.559 63.9911 410.553 63.985 410.548 63.9789C409.363 62.6951 408.852 60.9909 409.255 59.2783C409.652 57.5933 410.849 56.1734 412.575 55.6598L415.11 54.7859C415.124 54.7809 415.139 54.7763 415.154 54.7724C415.156 54.7714 415.158 54.7698 415.161 54.7674C415.173 54.7578 415.189 54.7408 415.203 54.7171C415.217 54.6934 415.225 54.6715 415.227 54.6564C415.228 54.6528 415.229 54.6501 415.229 54.6482C415.226 54.6376 415.224 54.6269 415.222 54.6161L414.344 49.7846C414.337 49.7474 414.333 49.7097 414.333 49.6719C414.333 49.4851 414.282 49.4308 414.281 49.4296C414.281 49.4294 414.281 49.4293 414.28 49.4291C414.279 49.4272 414.276 49.4237 414.261 49.4237H411.626C409.828 49.4237 408.215 48.5213 407.308 47.0094C406.409 45.5122 406.307 43.7026 407.109 42.0989L408.339 39.6392C408.36 39.5961 408.365 39.5493 408.355 39.5055C408.345 39.4653 408.321 39.4187 408.267 39.3763L404.238 36.5733C404.232 36.5691 404.226 36.5647 404.22 36.5602C404.179 36.5298 404.145 36.5243 404.112 36.5282C404.071 36.533 404.025 36.5542 403.99 36.5895L402.145 38.4342C402.139 38.4401 402.133 38.446 402.127 38.4517C400.843 39.6366 399.139 40.147 397.426 39.744C395.741 39.3476 394.321 38.1498 393.808 36.4239L392.95 33.9363C392.91 33.867 392.862 33.8208 392.821 33.7964ZM395.331 76.9937C395.331 76.9938 395.33 76.9938 395.328 76.9932C395.33 76.9933 395.33 76.9935 395.331 76.9937Z" fill="#666666"></path><path fill-rule="evenodd" clip-rule="evenodd" d="M393.705 43.538C387.164 43.538 381.862 48.8406 381.862 55.3817C381.862 61.9228 387.164 67.2254 393.705 67.2254C400.246 67.2254 405.549 61.9228 405.549 55.3817C405.549 48.8406 400.246 43.538 393.705 43.538ZM380.601 55.3817C380.601 48.1444 386.468 42.2774 393.705 42.2774C400.943 42.2774 406.81 48.1444 406.81 55.3817C406.81 62.619 400.943 68.486 393.705 68.486C386.468 68.486 380.601 62.619 380.601 55.3817Z" fill="#666666"></path><path fill-rule="evenodd" clip-rule="evenodd" d="M389.326 13.406C389.543 13.2804 389.822 13.3549 389.947 13.5725L390.88 15.1885C392.12 14.5875 393.477 14.4353 394.751 14.6791L395.256 12.7973C395.321 12.5546 395.57 12.4107 395.813 12.4757C396.055 12.5407 396.199 12.7901 396.134 13.0327L395.63 14.9145C396.856 15.3407 397.955 16.1508 398.728 17.2913L400.344 16.3583C400.562 16.2327 400.84 16.3072 400.965 16.5248C401.091 16.7423 401.016 17.0205 400.799 17.1461L399.183 18.0791C399.784 19.3192 399.936 20.6758 399.692 21.9503L401.574 22.4546C401.817 22.5196 401.961 22.769 401.896 23.0116C401.831 23.2542 401.581 23.3982 401.339 23.3332L399.457 22.829C399.031 24.0546 398.221 25.1535 397.08 25.9268L398.013 27.5429C398.139 27.7605 398.064 28.0386 397.847 28.1642C397.629 28.2898 397.351 28.2153 397.225 27.9977L396.292 26.3817C395.052 26.9828 393.695 27.1349 392.421 26.8912L391.917 28.7729C391.852 29.0156 391.602 29.1596 391.36 29.0945C391.117 29.0295 390.973 28.7801 391.038 28.5375L391.542 26.6557C390.317 26.2295 389.218 25.4195 388.445 24.2789L386.828 25.2119C386.611 25.3375 386.333 25.263 386.207 25.0454C386.082 24.8279 386.156 24.5497 386.374 24.4241L387.99 23.4911C387.363 22.199 387.225 20.7804 387.513 19.4599L385.798 19.0004C385.555 18.9354 385.411 18.686 385.476 18.4434C385.541 18.2007 385.791 18.0567 386.033 18.1218L387.771 18.5874C388.21 17.4238 389 16.3842 390.092 15.6434L389.159 14.0273C389.034 13.8098 389.108 13.5316 389.326 13.406ZM390.933 16.1896C389.711 16.8953 388.876 18.0131 388.501 19.2672C388.099 20.6174 388.231 22.1225 388.991 23.4383C389.723 24.7075 390.9 25.5591 392.213 25.9108C393.525 26.2624 394.97 26.1134 396.239 25.3807C397.509 24.6479 398.36 23.471 398.712 22.1585C399.064 20.8461 398.915 19.401 398.182 18.1319C397.449 16.8627 396.272 16.0111 394.96 15.6594C393.647 15.3078 392.202 15.4568 390.933 16.1896Z" fill="#666666"></path><path fill-rule="evenodd" clip-rule="evenodd" d="M356.672 43.6004C356.889 43.4748 357.167 43.5493 357.293 43.7669L358.018 45.0226C359.005 44.562 360.078 44.44 361.091 44.6183L361.484 43.1528C361.549 42.9101 361.798 42.7661 362.041 42.8311C362.283 42.8962 362.427 43.1456 362.362 43.3882L361.97 44.8537C362.937 45.2061 363.804 45.8478 364.429 46.7404L365.685 46.0154C365.902 45.8898 366.18 45.9643 366.306 46.1819C366.431 46.3994 366.357 46.6776 366.139 46.8032L364.884 47.5282C365.344 48.5155 365.466 49.5877 365.288 50.6012L366.754 50.9938C366.996 51.0589 367.14 51.3083 367.075 51.5509C367.01 51.7935 366.761 51.9375 366.518 51.8725L365.053 51.4798C364.7 52.4467 364.058 53.3142 363.166 53.9389L363.891 55.1947C364.016 55.4122 363.942 55.6904 363.724 55.816C363.507 55.9416 363.229 55.867 363.103 55.6495L362.378 54.3937C361.391 54.8544 360.319 54.9764 359.305 54.7981L358.912 56.2636C358.847 56.5063 358.598 56.6503 358.355 56.5852C358.113 56.5202 357.969 56.2708 358.034 56.0282L358.426 54.5627C357.46 54.2103 356.592 53.5686 355.967 52.676L354.712 53.401C354.494 53.5266 354.216 53.4521 354.09 53.2345C353.965 53.017 354.039 52.7388 354.257 52.6132L355.513 51.8882C355.032 50.8581 354.92 49.7357 355.133 48.6839L353.806 48.3283C353.563 48.2633 353.419 48.0139 353.484 47.7712C353.549 47.5286 353.799 47.3846 354.041 47.4496L355.391 47.8113C355.752 46.8949 356.376 46.075 357.23 45.4775L356.505 44.2217C356.38 44.0042 356.454 43.726 356.672 43.6004ZM358.069 46.0207C357.088 46.5871 356.418 47.4838 356.118 48.4902C355.795 49.5738 355.901 50.7813 356.511 51.8371C357.099 52.8555 358.043 53.5388 359.096 53.821C360.149 54.1032 361.309 53.9836 362.327 53.3956C363.345 52.8077 364.029 51.8635 364.311 50.8102C364.593 49.757 364.473 48.5976 363.886 47.5792C363.298 46.5609 362.353 45.8776 361.3 45.5954C360.247 45.3132 359.087 45.4328 358.069 46.0207Z" fill="#666666"></path></svg> 