<svg width="707" height="120" fill="none" xmlns="http://www.w3.org/2000/svg"><path d="m380.905 68.464 27.306-35.035c.319-.429 1.488-2.036 1.488-2.036l1.487-2.036h-14.344l-.425.536s-.212.321-.318.428l-24.013 30-23.375-30-.744-.964h-13.918l1.487 2.036s1.169 1.607 1.488 2.036l27.2 35.357-28.369 36.643c-.319.428-1.594 2.035-1.594 2.035l-1.7 2.143h14.556l25.394-32.678 24.438 31.607.743 1.071h14.982l-31.769-41.143ZM706.348.106h-11.9v111.215h11.9V.106Z" fill="#0082CA"/><path d="m494.062 109.286-.106-80.357h-11.688v10.714c-7.65-8.036-18.487-13.072-30.387-13.072-23.269 0-42.075 18.965-42.075 42.429 0 23.464 18.806 42.429 42.075 42.429 12.006 0 22.843-5.036 30.493-13.179v11.036h11.688Zm-42.181-9.643c-16.788 0-30.388-13.714-30.388-30.643 0-16.929 13.6-30.643 30.388-30.643 16.787 0 30.387 13.714 30.387 30.643-.106 16.929-13.6 30.643-30.387 30.643ZM589.793 109.286 589.687 0H578v39.643c-7.65-8.036-18.488-13.072-30.388-13.072-23.269 0-42.075 18.965-42.075 42.429 0 23.464 18.806 42.429 42.075 42.429 12.006 0 22.844-5.036 30.494-13.179v11.036h11.687Zm-42.181-9.643c-16.787 0-30.387-13.714-30.387-30.643 0-16.929 13.6-30.643 30.387-30.643C564.4 38.357 578 52.071 578 69c-.107 16.929-13.707 30.643-30.388 30.643ZM323.105 72c-1.275 15.322-13.812 27.643-29.431 28.072-10.519.321-19.975-4.822-25.606-12.858l53.444-27.642 10.518-5.465C325.762 37.822 309.824 26.464 291.549 27c-23.162.643-41.437 20.143-40.8 43.607.638 23.465 20.081 41.893 43.244 41.25 23.269-.643 41.544-20.25 40.906-43.607 0-.75-.106-1.5-.106-2.25l-11.688 6Zm-60.668-1.714c-.532-16.929 12.75-30.965 29.537-31.5 9.456-.322 17.956 3.857 23.694 10.5L263.18 76.393c-.425-2.036-.637-4.072-.743-6.107ZM672.88 71.571c-1.275 15.322-13.812 27.643-29.431 28.072-10.519.321-19.975-4.822-25.606-12.857l53.443-27.643 10.519-5.465c-6.269-16.285-22.206-27.642-40.481-27.107-23.269.643-41.544 20.25-40.906 43.607.637 23.465 20.081 41.893 43.243 41.25 23.269-.642 41.544-20.25 40.907-43.607 0-.75-.107-1.5-.107-2.25l-11.581 6Zm-60.562-1.607c-.532-16.928 12.75-30.964 29.537-31.5 9.456-.321 17.956 3.857 23.694 10.5l-52.488 27.107c-.425-2.035-.743-4.071-.743-6.107ZM209.21 34.196l-15.963 9.383c1.962 3.519 3.121 7.308 3.299 11.188v.992c0 3.429-.802 6.858-2.229 10.015-8.918 19.399-42.983 33.925-83.648 33.925-4.905 0-9.72-.18-14.447-.631-15.784-1.354-30.053-4.963-41.646-10.015L189.77 18.767C169.615 7.218 141.346 0 109.955 0 49.225 0 0 26.887 0 60c0 14.346 9.185 27.519 24.613 37.805a65.764 65.764 0 0 0 4.191 2.616 106.448 106.448 0 0 0 5.44 3.068c6.153 3.158 12.93 5.955 20.243 8.3 3.567 1.173 7.313 2.166 11.147 3.068l2.14.541c13.02 2.978 27.2 4.602 42.181 4.602 11.772 0 23.097-.992 33.709-2.887 20.779-3.609 38.792-10.557 52.169-19.67.268-.18.535-.36.713-.54 4.905-3.43 9.186-7.129 12.664-11.099 1.337-1.533 2.497-3.067 3.656-4.601 2.853-4.06 4.905-8.391 6.064-12.902A32.624 32.624 0 0 0 220 60c0-.632 0-1.353-.089-1.985-.089-1.083-.179-2.256-.357-3.338-.178-.993-.357-1.985-.624-2.978-1.159-4.511-3.211-8.842-6.064-12.992-1.249-1.534-2.408-3.068-3.656-4.511ZM34.244 75.88c-6.153-6.045-9.631-12.903-9.631-20.21v-.993c1.07-23.82 39.06-43.038 85.877-43.038 16.944 0 32.728 2.526 46.105 6.857v.09L34.244 75.88Z" fill="#0082CA"/></svg>